<?xml version="1.0" encoding="utf-8"?>
<!-- Generator: Adobe Illustrator 23.0.2, SVG Export Plug-In . SVG Version: 6.00 Build 0)  -->
<svg version="1.1" xmlns="http://www.w3.org/2000/svg" xmlns:xlink="http://www.w3.org/1999/xlink" x="0px" y="0px"
	 viewBox="0 0 35.68 36" style="enable-background:new 0 0 35.68 36;" xml:space="preserve">
<style type="text/css">
	.st0{opacity:0.5;fill:#CFD1D2;}
	.st1{opacity:0.5;fill:#919395;}
	.st2{fill:#BABCBE;}
	.st3{fill:#F26A5E;}
	.st4{fill:#70C48F;}
	.st5{fill:none;stroke:#919395;stroke-miterlimit:10;}
	.st6{fill:#F2F3F4;}
	.st7{fill:#FFFFFF;}
	.st8{fill:#70C48F;stroke:#FFFFFF;stroke-miterlimit:10;}
	.st9{fill:#25A9E0;}
	.st10{fill:#FFFFFF;stroke:#CFD1D2;stroke-miterlimit:10;}
	.st11{fill:#CFD1D2;}
	.st12{fill:none;stroke:#25A9E0;stroke-width:2;stroke-miterlimit:10;}
	.st13{fill:#231F20;}
	.st14{fill:#F3F4F5;stroke:#919395;stroke-miterlimit:10;}
	.st15{fill:#929497;}
	.st16{fill:#FFFFFF;stroke:#919395;stroke-miterlimit:10;}
	.st17{fill:#221F1F;}
	.st18{fill:#6D6F70;}
	.st19{fill:#919395;}
	.st20{fill:#B199C4;}
	.st21{fill:#F06A5E;}
	.st22{fill:#F9AD84;}
	.st23{fill:#67BABF;}
	.st24{fill:#F6CD3E;}
	.st25{opacity:0.5;fill:#F6CD3E;}
	.st26{fill:none;stroke:#000000;stroke-width:2;stroke-miterlimit:10;}
	.st27{fill:none;stroke:#CFD1D2;stroke-miterlimit:10;}
	.st28{fill:none;stroke:#F9AD84;stroke-width:3;stroke-linecap:round;stroke-miterlimit:10;}
	.st29{fill:none;stroke:#67BABF;stroke-width:3;stroke-linecap:round;stroke-miterlimit:10;}
	.st30{fill:none;stroke:#BABCBE;stroke-miterlimit:10;}
	.st31{fill:#FFFFFF;stroke:#F6921E;stroke-miterlimit:10;}
	.st32{fill:#F6921E;}
	.st33{fill:none;stroke:#E6E7E8;stroke-miterlimit:10;}
	.st34{fill:#E6E7E8;}
	.st35{fill:none;stroke:#F6921E;stroke-miterlimit:10;}
	.st36{opacity:0.5;fill:#F7CE3E;}
	.st37{fill:#FFFFFF;stroke:#D0D2D3;stroke-miterlimit:10;}
	.st38{fill:#D0D2D3;}
	.st39{fill:none;stroke:#231F20;stroke-miterlimit:10;}
	.st40{clip-path:url(#SVGID_2_);}
	.st41{clip-path:url(#SVGID_4_);}
	.st42{clip-path:url(#SVGID_6_);}
	.st43{clip-path:url(#SVGID_8_);}
	.st44{fill:#BBBDBF;}
	.st45{fill:none;stroke:#BBBDBF;stroke-width:2;stroke-miterlimit:10;}
	.st46{clip-path:url(#SVGID_10_);}
	.st47{fill:none;stroke:#D0D2D3;stroke-width:2;stroke-miterlimit:10;}
	.st48{clip-path:url(#SVGID_12_);}
	.st49{fill:#FFFFFF;stroke:#F7941D;stroke-miterlimit:10;}
	.st50{fill:#F7941D;}
	.st51{clip-path:url(#SVGID_14_);}
	.st52{fill:none;stroke:#F9AD84;stroke-width:2;stroke-miterlimit:10;stroke-dasharray:6;}
	.st53{fill:#64BABF;}
	.st54{fill:none;stroke:#67BABF;stroke-width:2;stroke-miterlimit:10;stroke-dasharray:6;}
	.st55{fill:none;stroke:#F26A5E;stroke-miterlimit:10;}
	.st56{fill:#231F20;stroke:#FFFFFF;stroke-miterlimit:10;}
</style>
<g id="_x30_0_Grid">
</g>
<g id="_x30_0_Panel">
</g>
<g id="_x30_0_Fixed_Header_and_Footer">
</g>
<g id="_x30_0_Changing_Footer">
</g>
<g id="Layer_9">
</g>
<g id="_x30_0_Instruction_Box">
	<g>
		<path class="st5" d="M17.84,35.5L17.84,35.5C8.26,35.5,0.5,27.74,0.5,18.16v-0.32C0.5,8.26,8.26,0.5,17.84,0.5h0
			c9.58,0,17.34,7.76,17.34,17.34v0.32C35.18,27.74,27.42,35.5,17.84,35.5z"/>
		<g>
			<g>
				<path class="st15" d="M21.09,12.29c0,0.12-0.05,0.22-0.14,0.32L15.61,18l5.35,5.4c0.09,0.09,0.14,0.2,0.14,0.32
					c0,0.12-0.05,0.22-0.14,0.32l-0.68,0.69c-0.09,0.09-0.2,0.14-0.31,0.14s-0.22-0.05-0.31-0.14l-6.34-6.4
					c-0.09-0.09-0.14-0.2-0.14-0.32c0-0.12,0.05-0.22,0.14-0.32l6.34-6.4c0.09-0.09,0.19-0.14,0.31-0.14s0.22,0.05,0.31,0.14
					l0.68,0.69C21.05,12.06,21.09,12.17,21.09,12.29z"/>
			</g>
		</g>
	</g>
</g>
<g id="_x30_0_Graph_Stuff">
</g>
<g id="_x30_0_I_dunno_Man">
</g>
<g id="Layer_8">
</g>
</svg>
