<?xml version="1.0" encoding="utf-8"?>
<!-- Generator: Adobe Illustrator 23.0.2, SVG Export Plug-In . SVG Version: 6.00 Build 0)  -->
<svg version="1.1" xmlns="http://www.w3.org/2000/svg" xmlns:xlink="http://www.w3.org/1999/xlink" x="0px" y="0px"
	 viewBox="0 0 1280 800" style="enable-background:new 0 0 1280 800;" xml:space="preserve">
<style type="text/css">
	.st0{fill:none;stroke:#D0D2D3;stroke-width:2;stroke-miterlimit:10;}
	.st1{fill:#D0D2D3;}
	.st2{font-family:'Open Sans';font-weight: 600}
	.st3{font-size:18px;}
	.st4{fill:none;stroke:#70C48F;stroke-miterlimit:10;}
	.st5{fill:#70C48F;}
	.st6{font-size:14px;}
	.st7{fill:none;stroke:#000000;stroke-miterlimit:10;}
	.st8{fill:#FFFFFF;}
	.st9{fill:#F7941D;}
	.st10{font-size:20px;}
</style>
<g id="Line18">
	<line class="st0" x1="352.96" y1="660.56" x2="592.71" y2="660.56"/>
</g>
<g id="Line17">
	<path class="st0" d="M119.33,530.1h-17.76c-10.99,0-19.92,8.95-19.92,20v90.46c0,11.04,8.92,20,19.92,20h222.38"/>
</g>
<g id="Line16">
	<line class="st0" x1="149.34" y1="530.1" x2="388.53" y2="530.1"/>
</g>
<g id="Line15">
	<line class="st0" x1="418.48" y1="530.1" x2="657.71" y2="530.1"/>
</g>
<g id="Line14">
	<line class="st0" x1="686.2" y1="530.1" x2="926.9" y2="530.1"/>
</g>
<g id="Line13">
	<path class="st0" d="M1160.51,399.63h17.83c11.04,0,20,8.95,20,20v90.46c0,11.04-8.96,20-20,20H955.35"/>
</g>
<g id="Line12">
	<line class="st0" x1="891.33" y1="399.63" x2="1129.96" y2="399.63"/>
</g>
<g id="Line11">
	<line class="st0" x1="622.14" y1="399.63" x2="860.82" y2="399.63"/>
</g>
<g id="Line10">
	<line class="st0" x1="352.96" y1="399.63" x2="592.14" y2="399.63"/>
</g>
<g id="Line9">
	<path class="st0" d="M119.33,269.17h-17.76c-10.99,0-19.92,8.95-19.92,20v90.46c0,11.04,8.92,20,19.92,20h222.38"/>
</g>
<g id="Line8">
	<line class="st0" x1="149.34" y1="269.17" x2="388.52" y2="269.17"/>
</g>
<g id="Line7">
	<line class="st0" x1="418.48" y1="269.17" x2="657.71" y2="269.17"/>
</g>
<g id="Line6">
	<line class="st0" x1="686.2" y1="269.17" x2="926.89" y2="269.17"/>
</g>
<g id="Line5">
	<path class="st0" d="M1160.51,138.71h17.83c11.04,0,20,8.95,20,20v90.46c0,11.04-8.96,20-20,20H955.35"/>
</g>
<g id="Line4">
	<line class="st0" x1="891.33" y1="138.71" x2="1129.96" y2="138.71"/>
</g>
<g id="Line3">
	<line class="st0" x1="622.14" y1="138.71" x2="860.82" y2="138.71"/>
</g>
<g id="Line2">
	<line class="st0" x1="352.96" y1="138.71" x2="592.14" y2="138.71"/>
</g>
<g id="Text18">
	<text transform="matrix(1 0 0 1 505.8591 698.3033)" class="st1 st2 st3">Infnity Mode</text>
</g>
<g id="Text17">
	<g>
		<text transform="matrix(1 0 0 1 268.9792 698.3033)" class="st1 st2 st3">Distances</text>
	</g>
</g>
<g id="Text16">
	<g>
		<text transform="matrix(1 0 0 1 119.6287 567.8067)" class="st1 st2 st3">Normal Form</text>
	</g>
</g>
<g id="Text15">
	<text transform="matrix(1 0 0 1 388.0457 567.8067)" class="st1 st2 st3">Angle between Lines</text>
</g>
<g id="Text14">
	<text transform="matrix(1 0 0 1 655.321 567.8067)" class="st1 st2 st3">Standard Angle &amp; Slope</text>
</g>
<g id="Text13">
	<text transform="matrix(1 0 0 1 928.1501 567.8067)" class="st1 st2 st3">Point of Intersection</text>
</g>
<g id="Text12">
	<text transform="matrix(1 0 0 1 1041.9009 437.3751)" class="st1 st2 st3">General Form</text>
</g>
<g id="Text11">
	<text transform="matrix(1 0 0 1 708.2217 437.3751)" class="st1 st2 st3">Slope-Intercept Form</text>
</g>
<g id="Text10">
	<text transform="matrix(1 0 0 1 492.7899 437.3751)" class="st1 st2 st3">Intercept Form</text>
</g>
<g id="Text9">
	<text transform="matrix(1 0 0 1 217.5884 437.3751)" class="st1 st2 st3">Two Point Form</text>
</g>
<g id="Text8">
	<g>
		<text transform="matrix(1 0 0 1 119.6287 306.8758)" class="st1 st2 st3">Point-Slope Form</text>
	</g>
</g>
<g id="Text7">
	<g>
		<text transform="matrix(1 0 0 1 388.0457 306.8758)" class="st1 st2 st3">Collinear Points</text>
	</g>
</g>
<g id="Text6">
	<text transform="matrix(1 0 0 1 655.321 304.8743)" class="st1 st2 st3">Slope</text>
</g>
<g id="Text5">
	<text transform="matrix(1 0 0 1 928.1501 306.8758)" class="st1 st2 st3">Distance between Points</text>
</g>
<g id="Text4">
	<text transform="matrix(1 0 0 1 985.0781 176.3773)" class="st1 st2 st3">Identify Coordinates</text>
</g>
<g id="Text3">
	<text transform="matrix(1 0 0 1 770.9968 176.3773)" class="st1 st2 st3">Locate a Point</text>
</g>
<!-- <g id="Text3">
	<text transform="matrix(1 0 0 1 750.8367 176.3773)" class="st1 st2 st3">Points on a Line</text>
</g> -->
<g id="Text2">
	<g>
		<text transform="matrix(1 0 0 1 440.45 176.3773)" class="st1 st2 st3">Vertical &amp; Horizontal Lines</text>
	</g>
</g>
<g id="Text1">
	<g>
		<text transform="matrix(1 0 0 1 265.0261 176.3773)" class="st1 st2 st3">ΔX and ΔY</text>
	</g>
</g>
<g id="Game18">
	<g>
		<path class="st4" d="M613.8,737.86h-48.45c-3.87,0-7-3.13-7-7v-16c0-3.87,3.13-7,7-7h48.45c3.87,0,7,3.13,7,7v16
			C620.8,734.73,617.66,737.86,613.8,737.86z"/>
		<g>
			<text transform="matrix(1 0 0 1 568.1853 728.3849)" class="st5 st2 st6">GAME</text>
		</g>
	</g>
</g>
<g id="Game17">
	<g>
		<path class="st4" d="M345.38,737.86h-48.45c-3.87,0-7-3.13-7-7v-16c0-3.87,3.13-7,7-7h48.45c3.87,0,7,3.13,7,7v16
			C352.38,734.73,349.25,737.86,345.38,737.86z"/>
		<g>
			<text transform="matrix(1 0 0 1 299.7703 728.3849)" class="st5 st2 st6">GAME</text>
		</g>
	</g>
</g>
<g id="Game16">
	<g>
		<path class="st4" d="M268.68,607.36h-48.45c-3.87,0-7-3.13-7-7v-16c0-3.87,3.13-7,7-7h48.45c3.87,0,7,3.13,7,7v16
			C275.68,604.23,272.54,607.36,268.68,607.36z"/>
		<g>
			<text transform="matrix(1 0 0 1 223.0672 597.8879)" class="st5 st2 st6">GAME</text>
		</g>
	</g>
</g>
<g id="Game15">
	<g>
		<path class="st4" d="M537.09,607.36h-48.45c-3.87,0-7-3.13-7-7v-16c0-3.87,3.13-7,7-7h48.45c3.87,0,7,3.13,7,7v16
			C544.09,604.23,540.96,607.36,537.09,607.36z"/>
		<g>
			<text transform="matrix(1 0 0 1 491.4822 597.8879)" class="st5 st2 st6">GAME</text>
		</g>
	</g>
</g>
<g id="Game14">
	<g>
		<path class="st4" d="M804.34,607.36h-48.45c-3.87,0-7-3.13-7-7v-16c0-3.87,3.13-7,7-7h48.45c3.87,0,7,3.13,7,7v16
			C811.34,604.23,808.2,607.36,804.34,607.36z"/>
		<g>
			<text transform="matrix(1 0 0 1 758.7283 597.8879)" class="st5 st2 st6">GAME</text>
		</g>
	</g>
</g>
<g id="Game13">
	<g>
		<path class="st4" d="M1077.49,607.36h-48.45c-3.87,0-7-3.13-7-7v-16c0-3.87,3.13-7,7-7h48.45c3.87,0,7,3.13,7,7v16
			C1084.49,604.23,1081.35,607.36,1077.49,607.36z"/>
		<g>
			<text transform="matrix(1 0 0 1 1031.8757 597.8879)" class="st5 st2 st6">GAME</text>
		</g>
	</g>
</g>
<g id="Game12">
	<g>
		<path class="st4" d="M1154.19,476.93h-48.45c-3.87,0-7-3.13-7-7v-16c0-3.87,3.13-7,7-7h48.45c3.87,0,7,3.13,7,7v16
			C1161.19,473.8,1158.06,476.93,1154.19,476.93z"/>
		<g>
			<text transform="matrix(1 0 0 1 1108.5789 467.4563)" class="st5 st2 st6">GAME</text>
		</g>
	</g>
</g>
<g id="Game11">
	<g>
		<path class="st4" d="M881.04,476.93h-48.45c-3.87,0-7-3.13-7-7v-16c0-3.87,3.13-7,7-7h48.45c3.87,0,7,3.13,7,7v16
			C888.04,473.8,884.91,476.93,881.04,476.93z"/>
		<g>
			<text transform="matrix(1 0 0 1 835.4314 467.4563)" class="st5 st2 st6">GAME</text>
		</g>
	</g>
</g>
<g id="Game10">
	<g>
		<path class="st4" d="M613.8,476.93h-48.45c-3.87,0-7-3.13-7-7v-16c0-3.87,3.13-7,7-7h48.45c3.87,0,7,3.13,7,7v16
			C620.8,473.8,617.66,476.93,613.8,476.93z"/>
		<g>
			<text transform="matrix(1 0 0 1 568.1853 467.4563)" class="st5 st2 st6">GAME</text>
		</g>
	</g>
</g>
<g id="Game9">
	<g>
		<path class="st4" d="M345.38,476.93h-48.45c-3.87,0-7-3.13-7-7v-16c0-3.87,3.13-7,7-7h48.45c3.87,0,7,3.13,7,7v16
			C352.38,473.8,349.25,476.93,345.38,476.93z"/>
		<g>
			<text transform="matrix(1 0 0 1 299.7703 467.4563)" class="st5 st2 st6">GAME</text>
		</g>
	</g>
</g>
<g id="Game8">
	<g>
		<path class="st4" d="M268.68,346.43h-48.45c-3.87,0-7-3.13-7-7v-16c0-3.87,3.13-7,7-7h48.45c3.87,0,7,3.13,7,7v16
			C275.68,343.3,272.54,346.43,268.68,346.43z"/>
		<g>
			<text transform="matrix(1 0 0 1 223.0672 336.9576)" class="st5 st2 st6">GAME</text>
		</g>
	</g>
</g>
<g id="Game7">
	<g>
		<path class="st4" d="M537.09,346.43h-48.45c-3.87,0-7-3.13-7-7v-16c0-3.87,3.13-7,7-7h48.45c3.87,0,7,3.13,7,7v16
			C544.09,343.3,540.96,346.43,537.09,346.43z"/>
		<g>
			<text transform="matrix(1 0 0 1 491.4822 336.9576)" class="st5 st2 st6">GAME</text>
		</g>
	</g>
</g>
<g id="Game6">
	<g>
		<path class="st4" d="M804.34,346.43h-48.45c-3.87,0-7-3.13-7-7v-16c0-3.87,3.13-7,7-7h48.45c3.87,0,7,3.13,7,7v16
			C811.34,343.3,808.2,346.43,804.34,346.43z"/>
		<g>
			<text transform="matrix(1 0 0 1 758.7283 336.9576)" class="st5 st2 st6">GAME</text>
		</g>
	</g>
</g>
<g id="Game5">
	<g>
		<path class="st4" d="M1077.49,346.43h-48.45c-3.87,0-7-3.13-7-7v-16c0-3.87,3.13-7,7-7h48.45c3.87,0,7,3.13,7,7v16
			C1084.49,343.3,1081.35,346.43,1077.49,346.43z"/>
		<g>
			<text transform="matrix(1 0 0 1 1031.8757 336.9576)" class="st5 st2 st6">GAME</text>
		</g>
	</g>
</g>
<g id="Game4">
	<g>
		<path class="st4" d="M1154.19,215.93h-48.45c-3.87,0-7-3.13-7-7v-16c0-3.87,3.13-7,7-7h48.45c3.87,0,7,3.13,7,7v16
			C1161.19,212.8,1158.06,215.93,1154.19,215.93z"/>
		<g>
			<text transform="matrix(1 0 0 1 1108.5789 206.4589)" class="st5 st2 st6">GAME</text>
		</g>
	</g>
</g>
<g id="Game3">
	<g>
		<path class="st4" d="M881.04,215.93h-48.45c-3.87,0-7-3.13-7-7v-16c0-3.87,3.13-7,7-7h48.45c3.87,0,7,3.13,7,7v16
			C888.04,212.8,884.91,215.93,881.04,215.93z"/>
		<g>
			<text transform="matrix(1 0 0 1 835.4314 206.4589)" class="st5 st2 st6">GAME</text>
		</g>
	</g>
</g>
<g id="Game2">
	<g>
		<path class="st4" d="M613.8,215.93h-48.45c-3.87,0-7-3.13-7-7v-16c0-3.87,3.13-7,7-7h48.45c3.87,0,7,3.13,7,7v16
			C620.8,212.8,617.66,215.93,613.8,215.93z"/>
		<g>
			<text transform="matrix(1 0 0 1 568.1853 206.4589)" class="st5 st2 st6">GAME</text>
		</g>
	</g>
</g>
<g id="Game1">
	<g>
		<path class="st4" d="M345.38,215.93h-48.45c-3.87,0-7-3.13-7-7v-16c0-3.87,3.13-7,7-7h48.45c3.87,0,7,3.13,7,7v16
			C352.38,212.8,349.25,215.93,345.38,215.93z"/>
		<g>
			<text transform="matrix(1 0 0 1 299.7703 206.4589)" class="st5 st2 st6">GAME</text>
		</g>
	</g>
</g>
<g id="Tutorial17">
	<g>
		<path class="st4" d="M277.79,737.86h-74.74c-3.87,0-7-3.13-7-7v-16c0-3.87,3.13-7,7-7h74.74c3.87,0,7,3.13,7,7v16
			C284.79,734.73,281.65,737.86,277.79,737.86z"/>
		<g>
			<text transform="matrix(1 0 0 1 205.8816 728.3849)" class="st5 st2 st6">TUTORIAL</text>
		</g>
	</g>
</g>
<g id="Tutorial16">
	<g>
		<path class="st4" d="M201.08,607.36h-74.74c-3.87,0-7-3.13-7-7v-16c0-3.87,3.13-7,7-7h74.74c3.87,0,7,3.13,7,7v16
			C208.08,604.23,204.95,607.36,201.08,607.36z"/>
		<g>
			<text transform="matrix(1 0 0 1 129.1785 597.8879)" class="st5 st2 st6">TUTORIAL</text>
		</g>
	</g>
</g>
<g id="Tutorial15">
	<g>
		<path class="st4" d="M469.5,607.36h-74.74c-3.87,0-7-3.13-7-7v-16c0-3.87,3.13-7,7-7h74.74c3.87,0,7,3.13,7,7v16
			C476.5,604.23,473.36,607.36,469.5,607.36z"/>
		<g>
			<text transform="matrix(1 0 0 1 397.5935 597.8879)" class="st5 st2 st6">TUTORIAL</text>
		</g>
	</g>
</g>
<g id="Tutorial14">
	<g>
		<path class="st4" d="M736.74,607.36H662c-3.87,0-7-3.13-7-7v-16c0-3.87,3.13-7,7-7h74.74c3.87,0,7,3.13,7,7v16
			C743.74,604.23,740.61,607.36,736.74,607.36z"/>
		<g>
			<text transform="matrix(1 0 0 1 664.8396 597.8879)" class="st5 st2 st6">TUTORIAL</text>
		</g>
	</g>
</g>
<g id="Tutorial13">
	<g>
		<path class="st4" d="M1009.89,607.36h-74.74c-3.87,0-7-3.13-7-7v-16c0-3.87,3.13-7,7-7h74.74c3.87,0,7,3.13,7,7v16
			C1016.89,604.23,1013.76,607.36,1009.89,607.36z"/>
		<g>
			<text transform="matrix(1 0 0 1 937.9871 597.8879)" class="st5 st2 st6">TUTORIAL</text>
		</g>
	</g>
</g>
<g id="Tutorial12">
	<g>
		<path class="st4" d="M1086.59,476.93h-74.74c-3.87,0-7-3.13-7-7v-16c0-3.87,3.13-7,7-7h74.74c3.87,0,7,3.13,7,7v16
			C1093.59,473.8,1090.46,476.93,1086.59,476.93z"/>
		<g>
			<text transform="matrix(1 0 0 1 1014.6902 467.4563)" class="st5 st2 st6">TUTORIAL</text>
		</g>
	</g>
</g>
<g id="Tutorial11">
	<g>
		<path class="st4" d="M813.45,476.93H738.7c-3.87,0-7-3.13-7-7v-16c0-3.87,3.13-7,7-7h74.74c3.87,0,7,3.13,7,7v16
			C820.45,473.8,817.31,476.93,813.45,476.93z"/>
		<g>
			<text transform="matrix(1 0 0 1 741.5427 467.4563)" class="st5 st2 st6">TUTORIAL</text>
		</g>
	</g>
</g>
<g id="Tutorial10">
	<g>
		<path class="st4" d="M546.2,476.93h-74.74c-3.87,0-7-3.13-7-7v-16c0-3.87,3.13-7,7-7h74.74c3.87,0,7,3.13,7,7v16
			C553.2,473.8,550.07,476.93,546.2,476.93z"/>
		<g>
			<text transform="matrix(1 0 0 1 474.2966 467.4563)" class="st5 st2 st6">TUTORIAL</text>
		</g>
	</g>
</g>
<g id="Tutorial9">
	<g>
		<path class="st4" d="M277.79,476.93h-74.74c-3.87,0-7-3.13-7-7v-16c0-3.87,3.13-7,7-7h74.74c3.87,0,7,3.13,7,7v16
			C284.79,473.8,281.65,476.93,277.79,476.93z"/>
		<g>
			<text transform="matrix(1 0 0 1 205.8816 467.4563)" class="st5 st2 st6">TUTORIAL</text>
		</g>
	</g>
</g>
<g id="Tutorial8">
	<g>
		<path class="st4" d="M201.08,346.43h-74.74c-3.87,0-7-3.13-7-7v-16c0-3.87,3.13-7,7-7h74.74c3.87,0,7,3.13,7,7v16
			C208.08,343.3,204.95,346.43,201.08,346.43z"/>
		<g>
			<text transform="matrix(1 0 0 1 129.1785 336.9576)" class="st5 st2 st6">TUTORIAL</text>
		</g>
	</g>
</g>
<g id="Tutorial7">
	<g>
		<path class="st4" d="M469.5,346.43h-74.74c-3.87,0-7-3.13-7-7v-16c0-3.87,3.13-7,7-7h74.74c3.87,0,7,3.13,7,7v16
			C476.5,343.3,473.36,346.43,469.5,346.43z"/>
		<g>
			<text transform="matrix(1 0 0 1 397.5935 336.9576)" class="st5 st2 st6">TUTORIAL</text>
		</g>
	</g>
</g>
<g id="Tutorial6">
	<g>
		<path class="st4" d="M736.74,346.43H662c-3.87,0-7-3.13-7-7v-16c0-3.87,3.13-7,7-7h74.74c3.87,0,7,3.13,7,7v16
			C743.74,343.3,740.61,346.43,736.74,346.43z"/>
		<g>
			<text transform="matrix(1 0 0 1 664.8396 336.9576)" class="st5 st2 st6">TUTORIAL</text>
		</g>
	</g>
</g>
<g id="Tutorial5">
	<g>
		<path class="st4" d="M1009.89,346.43h-74.74c-3.87,0-7-3.13-7-7v-16c0-3.87,3.13-7,7-7h74.74c3.87,0,7,3.13,7,7v16
			C1016.89,343.3,1013.76,346.43,1009.89,346.43z"/>
		<g>
			<text transform="matrix(1 0 0 1 937.9871 336.9576)" class="st5 st2 st6">TUTORIAL</text>
		</g>
	</g>
</g>
<g id="Tutorial4">
	<g>
		<path class="st4" d="M1086.59,215.93h-74.74c-3.87,0-7-3.13-7-7v-16c0-3.87,3.13-7,7-7h74.74c3.87,0,7,3.13,7,7v16
			C1093.59,212.8,1090.46,215.93,1086.59,215.93z"/>
		<g>
			<text transform="matrix(1 0 0 1 1014.6902 206.4589)" class="st5 st2 st6">TUTORIAL</text>
		</g>
	</g>
</g>
<g id="Tutorial3">
	<g>
		<path class="st4" d="M813.45,215.93H738.7c-3.87,0-7-3.13-7-7v-16c0-3.87,3.13-7,7-7h74.74c3.87,0,7,3.13,7,7v16
			C820.45,212.8,817.31,215.93,813.45,215.93z"/>
		<g>
			<text transform="matrix(1 0 0 1 741.5427 206.4589)" class="st5 st2 st6">TUTORIAL</text>
		</g>
	</g>
</g>
<g id="Tutorial2">
	<g>
		<path class="st4" d="M546.2,215.93h-74.74c-3.87,0-7-3.13-7-7v-16c0-3.87,3.13-7,7-7h74.74c3.87,0,7,3.13,7,7v16
			C553.2,212.8,550.07,215.93,546.2,215.93z"/>
		<g>
			<text transform="matrix(1 0 0 1 474.2966 206.4589)" class="st5 st2 st6">TUTORIAL</text>
		</g>
	</g>
</g>
<g id="Tutorial1">
	<g>
		<path class="st4" d="M277.79,215.93h-74.74c-3.87,0-7-3.13-7-7v-16c0-3.87,3.13-7,7-7h74.74c3.87,0,7,3.13,7,7v16
			C284.79,212.8,281.65,215.93,277.79,215.93z"/>
		<g>
			<text transform="matrix(1 0 0 1 205.8816 206.4589)" class="st5 st2 st6">TUTORIAL</text>
		</g>
	</g>
</g>
<g id="Begin17">
	<g>
		<path class="st7" d="M345.38,737.86H227.53c-3.87,0-7-3.13-7-7v-16c0-3.87,3.13-7,7-7h117.85c3.87,0,7,3.13,7,7v16
			C352.38,734.73,349.25,737.86,345.38,737.86z"/>
		<g>
			<text transform="matrix(1 0 0 1 230.3699 728.3849)" class="st2 st6">BEGIN TUTORIAL</text>
		</g>
	</g>
</g>
<g id="Begin16">
	<g>
		<path class="st7" d="M244.19,607.36H126.34c-3.87,0-7-3.13-7-7v-16c0-3.87,3.13-7,7-7h117.85c3.87,0,7,3.13,7,7v16
			C251.19,604.23,248.05,607.36,244.19,607.36z"/>
		<g>
			<text transform="matrix(1 0 0 1 129.178 597.8879)" class="st2 st6">BEGIN TUTORIAL</text>
		</g>
	</g>
</g>
<g id="Begin15">
	<g>
		<path class="st7" d="M513.18,607.36H395.33c-3.87,0-7-3.13-7-7v-16c0-3.87,3.13-7,7-7h117.85c3.87,0,7,3.13,7,7v16
			C520.18,604.23,517.05,607.36,513.18,607.36z"/>
		<g>
			<text transform="matrix(1 0 0 1 398.1687 597.8879)" class="st2 st6">BEGIN TUTORIAL</text>
		</g>
	</g>
</g>
<g id="Begin14">
	<g>
		<path class="st7" d="M779.88,607.36H662.03c-3.87,0-7-3.13-7-7v-16c0-3.87,3.13-7,7-7h117.85c3.87,0,7,3.13,7,7v16
			C786.88,604.23,783.75,607.36,779.88,607.36z"/>
		<g>
			<text transform="matrix(1 0 0 1 664.8689 597.8879)" class="st2 st6">BEGIN TUTORIAL</text>
		</g>
	</g>
</g>
<g id="Begin13">
	<g>
		<path class="st7" d="M1053,607.36H935.15c-3.87,0-7-3.13-7-7v-16c0-3.87,3.13-7,7-7H1053c3.87,0,7,3.13,7,7v16
			C1060,604.23,1056.86,607.36,1053,607.36z"/>
		<g>
			<text transform="matrix(1 0 0 1 937.9861 597.8879)" class="st2 st6">BEGIN TUTORIAL</text>
		</g>
	</g>
</g>
<g id="Begin12">
	<g>
		<path class="st7" d="M1154.19,476.93h-117.85c-3.87,0-7-3.13-7-7v-16c0-3.87,3.13-7,7-7h117.85c3.87,0,7,3.13,7,7v16
			C1161.19,473.8,1158.06,476.93,1154.19,476.93z"/>
		<g>
			<text transform="matrix(1 0 0 1 1039.1785 467.4563)" class="st2 st6">BEGIN TUTORIAL</text>
		</g>
	</g>
</g>
<g id="Begin11">
	<g>
		<path class="st7" d="M881.07,476.93H763.22c-3.87,0-7-3.13-7-7v-16c0-3.87,3.13-7,7-7h117.85c3.87,0,7,3.13,7,7v16
			C888.07,473.8,884.94,476.93,881.07,476.93z"/>
		<g>
			<text transform="matrix(1 0 0 1 766.0613 467.4563)" class="st2 st6">BEGIN TUTORIAL</text>
		</g>
	</g>
</g>
<g id="Begin10">
	<g>
		<path class="st7" d="M614.37,476.93H496.52c-3.87,0-7-3.13-7-7v-16c0-3.87,3.13-7,7-7h117.85c3.87,0,7,3.13,7,7v16
			C621.37,473.8,618.24,476.93,614.37,476.93z"/>
		<g>
			<text transform="matrix(1 0 0 1 499.3611 467.4563)" class="st2 st6">BEGIN TUTORIAL</text>
		</g>
	</g>
</g>
<g id="Begin9">
	<g>
		<path class="st7" d="M345.38,476.93H227.53c-3.87,0-7-3.13-7-7v-16c0-3.87,3.13-7,7-7h117.85c3.87,0,7,3.13,7,7v16
			C352.38,473.8,349.25,476.93,345.38,476.93z"/>
		<g>
			<text transform="matrix(1 0 0 1 230.3699 467.4563)" class="st2 st6">BEGIN TUTORIAL</text>
		</g>
	</g>
</g>
<g id="Begin8">
	<g>
		<path class="st7" d="M244.19,346.43H126.34c-3.87,0-7-3.13-7-7v-16c0-3.87,3.13-7,7-7h117.85c3.87,0,7,3.13,7,7v16
			C251.19,343.3,248.05,346.43,244.19,346.43z"/>
		<g>
			<text transform="matrix(1 0 0 1 129.178 336.9576)" class="st2 st6">BEGIN TUTORIAL</text>
		</g>
	</g>
</g>
<g id="Begin7">
	<g>
		<path class="st7" d="M513.18,346.43H395.33c-3.87,0-7-3.13-7-7v-16c0-3.87,3.13-7,7-7h117.85c3.87,0,7,3.13,7,7v16
			C520.18,343.3,517.05,346.43,513.18,346.43z"/>
		<g>
			<text transform="matrix(1 0 0 1 398.1687 336.9576)" class="st2 st6">BEGIN TUTORIAL</text>
		</g>
	</g>
</g>
<g id="Begin6">
	<g>
		<path class="st7" d="M779.88,346.43H662.03c-3.87,0-7-3.13-7-7v-16c0-3.87,3.13-7,7-7h117.85c3.87,0,7,3.13,7,7v16
			C786.88,343.3,783.75,346.43,779.88,346.43z"/>
		<g>
			<text transform="matrix(1 0 0 1 664.8689 336.9576)" class="st2 st6">BEGIN TUTORIAL</text>
		</g>
	</g>
</g>
<g id="Begin5">
	<g>
		<path class="st7" d="M1053,346.43H935.15c-3.87,0-7-3.13-7-7v-16c0-3.87,3.13-7,7-7H1053c3.87,0,7,3.13,7,7v16
			C1060,343.3,1056.86,346.43,1053,346.43z"/>
		<g>
			<text transform="matrix(1 0 0 1 937.9861 336.9576)" class="st2 st6">BEGIN TUTORIAL</text>
		</g>
	</g>
</g>
<g id="Begin4">
	<g>
		<path class="st7" d="M1154.19,215.93h-117.85c-3.87,0-7-3.13-7-7v-16c0-3.87,3.13-7,7-7h117.85c3.87,0,7,3.13,7,7v16
			C1161.19,212.8,1158.06,215.93,1154.19,215.93z"/>
		<g>
			<text transform="matrix(1 0 0 1 1039.1785 206.4589)" class="st2 st6">BEGIN TUTORIAL</text>
		</g>
	</g>
</g>
<g id="Begin3">
	<g>
		<path class="st7" d="M881.07,215.93H763.22c-3.87,0-7-3.13-7-7v-16c0-3.87,3.13-7,7-7h117.85c3.87,0,7,3.13,7,7v16
			C888.07,212.8,884.94,215.93,881.07,215.93z"/>
		<g>
			<text transform="matrix(1 0 0 1 766.0613 206.4589)" class="st2 st6">BEGIN TUTORIAL</text>
		</g>
	</g>
</g>
<g id="Begin2">
	<g>
		<path class="st7" d="M614.37,215.93H496.52c-3.87,0-7-3.13-7-7v-16c0-3.87,3.13-7,7-7h117.85c3.87,0,7,3.13,7,7v16
			C621.37,212.8,618.24,215.93,614.37,215.93z"/>
		<g>
			<text transform="matrix(1 0 0 1 499.3611 206.4589)" class="st2 st6">BEGIN TUTORIAL</text>
		</g>
	</g>
</g>
<g id="Begin1">
	<g>
		<path class="st7" d="M345.38,215.93H227.53c-3.87,0-7-3.13-7-7v-16c0-3.87,3.13-7,7-7h117.85c3.87,0,7,3.13,7,7v16
			C352.38,212.8,349.25,215.93,345.38,215.93z"/>
		<g>
			<text transform="matrix(1 0 0 1 230.3699 206.4589)" class="st2 st6">BEGIN TUTORIAL</text>
		</g>
	</g>
</g>
<g id="Tick17">
	<g>
		<circle class="st5" cx="338.96" cy="660.56" r="15"/>
		<g>
			<path class="st8" d="M345.58,657.62c0,0.24-0.08,0.45-0.26,0.62l-6.61,6.61l-1.24,1.24c-0.17,0.17-0.38,0.26-0.62,0.26
				s-0.45-0.09-0.62-0.26l-1.24-1.24l-3.31-3.31c-0.17-0.17-0.25-0.38-0.25-0.62c0-0.24,0.08-0.45,0.25-0.62l1.24-1.24
				c0.17-0.17,0.38-0.26,0.62-0.26s0.45,0.08,0.62,0.26l2.68,2.69l5.99-6c0.17-0.17,0.38-0.26,0.62-0.26c0.24,0,0.45,0.09,0.62,0.26
				l1.24,1.24C345.5,657.17,345.58,657.38,345.58,657.62z"/>
		</g>
	</g>
</g>
<g id="Tick16">
	<g>
		<circle class="st5" cx="134.34" cy="529.1" r="15"/>
		<g>
			<path class="st8" d="M140.97,526.16c0,0.24-0.09,0.45-0.26,0.62l-6.61,6.61l-1.24,1.24c-0.17,0.17-0.38,0.26-0.62,0.26
				c-0.24,0-0.45-0.08-0.62-0.26l-1.24-1.24l-3.31-3.31c-0.17-0.17-0.26-0.38-0.26-0.62s0.08-0.45,0.26-0.62l1.24-1.24
				c0.17-0.17,0.38-0.26,0.62-0.26c0.24,0,0.45,0.09,0.62,0.26l2.68,2.69l5.99-6c0.17-0.17,0.38-0.26,0.62-0.26
				c0.24,0,0.45,0.09,0.62,0.26l1.24,1.24C140.88,525.71,140.97,525.92,140.97,526.16z"/>
		</g>
	</g>
</g>
<g id="Tick15">
	<g>
		<circle class="st5" cx="403.48" cy="529.1" r="15"/>
		<g>
			<path class="st8" d="M410.11,526.16c0,0.24-0.08,0.45-0.26,0.62l-6.61,6.61l-1.24,1.24c-0.17,0.17-0.38,0.26-0.62,0.26
				s-0.45-0.08-0.62-0.26l-1.24-1.24l-3.31-3.31c-0.17-0.17-0.25-0.38-0.25-0.62s0.08-0.45,0.25-0.62l1.24-1.24
				c0.17-0.17,0.38-0.26,0.62-0.26s0.45,0.09,0.62,0.26l2.68,2.69l5.99-6c0.17-0.17,0.38-0.26,0.62-0.26c0.24,0,0.45,0.09,0.62,0.26
				l1.24,1.24C410.02,525.71,410.11,525.92,410.11,526.16z"/>
		</g>
	</g>
</g>
<g id="Tick14">
	<g>
		<circle class="st5" cx="671.2" cy="529.1" r="15"/>
		<g>
			<path class="st8" d="M677.83,526.16c0,0.24-0.09,0.45-0.26,0.62l-6.61,6.61l-1.24,1.24c-0.17,0.17-0.38,0.26-0.62,0.26
				c-0.24,0-0.45-0.08-0.62-0.26l-1.24-1.24l-3.3-3.31c-0.17-0.17-0.26-0.38-0.26-0.62s0.08-0.45,0.26-0.62l1.24-1.24
				c0.17-0.17,0.38-0.26,0.62-0.26c0.24,0,0.45,0.09,0.62,0.26l2.68,2.69l5.99-6c0.17-0.17,0.38-0.26,0.62-0.26s0.45,0.09,0.62,0.26
				l1.24,1.24C677.74,525.71,677.83,525.92,677.83,526.16z"/>
		</g>
	</g>
</g>
<g id="Tick13">
	<g>
		<circle class="st5" cx="940.35" cy="529.1" r="15"/>
		<g>
			<path class="st8" d="M946.97,526.16c0,0.24-0.09,0.45-0.26,0.62l-6.61,6.61l-1.24,1.24c-0.17,0.17-0.38,0.26-0.62,0.26
				c-0.24,0-0.45-0.08-0.62-0.26l-1.24-1.24l-3.31-3.31c-0.17-0.17-0.26-0.38-0.26-0.62s0.09-0.45,0.26-0.62l1.24-1.24
				c0.17-0.17,0.38-0.26,0.62-0.26c0.24,0,0.45,0.09,0.62,0.26l2.68,2.69l5.99-6c0.17-0.17,0.38-0.26,0.62-0.26
				c0.24,0,0.45,0.09,0.62,0.26l1.24,1.24C946.89,525.71,946.97,525.92,946.97,526.16z"/>
		</g>
	</g>
</g>
<g id="Tick12">
	<g>
		<circle class="st5" cx="1144.96" cy="399.63" r="15"/>
		<g>
			<path class="st8" d="M1151.59,396.69c0,0.24-0.08,0.45-0.26,0.62l-6.61,6.61l-1.24,1.24c-0.17,0.17-0.38,0.26-0.62,0.26
				c-0.24,0-0.45-0.09-0.62-0.26l-1.24-1.24l-3.31-3.31c-0.17-0.17-0.25-0.38-0.25-0.62c0-0.24,0.08-0.45,0.25-0.62l1.24-1.24
				c0.17-0.17,0.38-0.26,0.62-0.26s0.45,0.09,0.62,0.26l2.69,2.69l5.99-6c0.17-0.17,0.38-0.26,0.62-0.26c0.24,0,0.45,0.09,0.62,0.26
				l1.24,1.24C1151.51,396.24,1151.59,396.45,1151.59,396.69z"/>
		</g>
	</g>
</g>
<g id="Tick11">
	<g>
		<circle class="st5" cx="875.82" cy="399.63" r="15"/>
		<g>
			<path class="st8" d="M882.44,396.69c0,0.24-0.08,0.45-0.26,0.62l-6.61,6.61l-1.24,1.24c-0.17,0.17-0.38,0.26-0.62,0.26
				c-0.24,0-0.45-0.09-0.62-0.26l-1.24-1.24l-3.31-3.31c-0.17-0.17-0.25-0.38-0.25-0.62c0-0.24,0.08-0.45,0.25-0.62l1.24-1.24
				c0.17-0.17,0.38-0.26,0.62-0.26s0.45,0.09,0.62,0.26l2.69,2.69l5.99-6c0.17-0.17,0.38-0.26,0.62-0.26c0.24,0,0.45,0.09,0.62,0.26
				l1.24,1.24C882.36,396.24,882.44,396.45,882.44,396.69z"/>
		</g>
	</g>
</g>
<g id="Tick10">
	<g>
		<circle class="st5" cx="607.14" cy="399.63" r="15"/>
		<g>
			<path class="st8" d="M613.77,396.69c0,0.24-0.09,0.45-0.26,0.62l-6.61,6.61l-1.24,1.24c-0.17,0.17-0.38,0.26-0.62,0.26
				c-0.24,0-0.45-0.09-0.62-0.26l-1.24-1.24l-3.3-3.31c-0.17-0.17-0.26-0.38-0.26-0.62c0-0.24,0.08-0.45,0.26-0.62l1.24-1.24
				c0.17-0.17,0.38-0.26,0.62-0.26c0.24,0,0.45,0.09,0.62,0.26l2.68,2.69l5.99-6c0.17-0.17,0.38-0.26,0.62-0.26s0.45,0.09,0.62,0.26
				l1.24,1.24C613.68,396.24,613.77,396.45,613.77,396.69z"/>
		</g>
	</g>
</g>
<g id="Tick9">
	<g>
		<circle class="st5" cx="338.96" cy="399.63" r="15"/>
		<g>
			<path class="st8" d="M345.58,396.69c0,0.24-0.08,0.45-0.26,0.62l-6.61,6.61l-1.24,1.24c-0.17,0.17-0.38,0.26-0.62,0.26
				s-0.45-0.09-0.62-0.26l-1.24-1.24l-3.31-3.31c-0.17-0.17-0.25-0.38-0.25-0.62c0-0.24,0.08-0.45,0.25-0.62l1.24-1.24
				c0.17-0.17,0.38-0.26,0.62-0.26s0.45,0.09,0.62,0.26l2.68,2.69l5.99-6c0.17-0.17,0.38-0.26,0.62-0.26c0.24,0,0.45,0.09,0.62,0.26
				l1.24,1.24C345.5,396.24,345.58,396.45,345.58,396.69z"/>
		</g>
	</g>
</g>
<g id="Tick8">
	<g>
		<circle class="st5" cx="134.34" cy="269.17" r="15"/>
		<g>
			<path class="st8" d="M140.97,266.23c0,0.24-0.09,0.45-0.26,0.62l-6.61,6.61l-1.24,1.24c-0.17,0.17-0.38,0.26-0.62,0.26
				c-0.24,0-0.45-0.09-0.62-0.26l-1.24-1.24l-3.31-3.31c-0.17-0.17-0.26-0.38-0.26-0.62c0-0.24,0.08-0.45,0.26-0.62l1.24-1.24
				c0.17-0.17,0.38-0.26,0.62-0.26c0.24,0,0.45,0.09,0.62,0.26l2.68,2.69l5.99-6c0.17-0.17,0.38-0.26,0.62-0.26
				c0.24,0,0.45,0.09,0.62,0.26l1.24,1.24C140.88,265.78,140.97,265.99,140.97,266.23z"/>
		</g>
	</g>
</g>
<g id="Tick7">
	<g>
		<circle class="st5" cx="403.48" cy="269.17" r="15"/>
		<g>
			<path class="st8" d="M410.11,266.23c0,0.24-0.08,0.45-0.26,0.62l-6.61,6.61l-1.24,1.24c-0.17,0.17-0.38,0.26-0.62,0.26
				s-0.45-0.09-0.62-0.26l-1.24-1.24l-3.31-3.31c-0.17-0.17-0.25-0.38-0.25-0.62c0-0.24,0.08-0.45,0.25-0.62l1.24-1.24
				c0.17-0.17,0.38-0.26,0.62-0.26s0.45,0.09,0.62,0.26l2.68,2.69l5.99-6c0.17-0.17,0.38-0.26,0.62-0.26c0.24,0,0.45,0.09,0.62,0.26
				l1.24,1.24C410.02,265.78,410.11,265.99,410.11,266.23z"/>
		</g>
	</g>
</g>
<g id="Tick6">
	<g>
		<circle class="st5" cx="671.2" cy="269.17" r="15"/>
		<g>
			<path class="st8" d="M677.83,266.23c0,0.24-0.09,0.45-0.26,0.62l-6.61,6.61l-1.24,1.24c-0.17,0.17-0.38,0.26-0.62,0.26
				c-0.24,0-0.45-0.09-0.62-0.26l-1.24-1.24l-3.3-3.31c-0.17-0.17-0.26-0.38-0.26-0.62c0-0.24,0.08-0.45,0.26-0.62l1.24-1.24
				c0.17-0.17,0.38-0.26,0.62-0.26c0.24,0,0.45,0.09,0.62,0.26l2.68,2.69l5.99-6c0.17-0.17,0.38-0.26,0.62-0.26s0.45,0.09,0.62,0.26
				l1.24,1.24C677.74,265.78,677.83,265.99,677.83,266.23z"/>
		</g>
	</g>
</g>
<g id="Tick5">
	<g>
		<circle class="st5" cx="940.35" cy="269.17" r="15"/>
		<g>
			<path class="st8" d="M946.97,266.23c0,0.24-0.09,0.45-0.26,0.62l-6.61,6.61l-1.24,1.24c-0.17,0.17-0.38,0.26-0.62,0.26
				c-0.24,0-0.45-0.09-0.62-0.26l-1.24-1.24l-3.31-3.31c-0.17-0.17-0.26-0.38-0.26-0.62c0-0.24,0.09-0.45,0.26-0.62l1.24-1.24
				c0.17-0.17,0.38-0.26,0.62-0.26c0.24,0,0.45,0.09,0.62,0.26l2.68,2.69l5.99-6c0.17-0.17,0.38-0.26,0.62-0.26
				c0.24,0,0.45,0.09,0.62,0.26l1.24,1.24C946.89,265.78,946.97,265.99,946.97,266.23z"/>
		</g>
	</g>
</g>
<g id="Tick4">
	<g>
		<circle class="st5" cx="1144.96" cy="138.71" r="15"/>
		<g>
			<path class="st8" d="M1151.59,135.77c0,0.24-0.08,0.45-0.26,0.62l-6.61,6.61l-1.24,1.24c-0.17,0.17-0.38,0.26-0.62,0.26
				c-0.24,0-0.45-0.09-0.62-0.26L1141,143l-3.31-3.31c-0.17-0.17-0.25-0.38-0.25-0.62c0-0.24,0.08-0.45,0.25-0.62l1.24-1.24
				c0.17-0.17,0.38-0.26,0.62-0.26s0.45,0.09,0.62,0.26l2.69,2.69l5.99-6c0.17-0.17,0.38-0.26,0.62-0.26c0.24,0,0.45,0.09,0.62,0.26
				l1.24,1.24C1151.51,135.32,1151.59,135.52,1151.59,135.77z"/>
		</g>
	</g>
</g>
<g id="Tick3">
	<g>
		<circle class="st5" cx="875.82" cy="138.71" r="15"/>
		<g>
			<path class="st8" d="M882.44,135.77c0,0.24-0.08,0.45-0.26,0.62l-6.61,6.61l-1.24,1.24c-0.17,0.17-0.38,0.26-0.62,0.26
				c-0.24,0-0.45-0.09-0.62-0.26l-1.24-1.24l-3.31-3.31c-0.17-0.17-0.25-0.38-0.25-0.62c0-0.24,0.08-0.45,0.25-0.62l1.24-1.24
				c0.17-0.17,0.38-0.26,0.62-0.26s0.45,0.09,0.62,0.26l2.69,2.69l5.99-6c0.17-0.17,0.38-0.26,0.62-0.26c0.24,0,0.45,0.09,0.62,0.26
				l1.24,1.24C882.36,135.32,882.44,135.52,882.44,135.77z"/>
		</g>
	</g>
</g>
<g id="Tick2">
	<g>
		<circle class="st5" cx="607.14" cy="138.71" r="15"/>
		<g>
			<path class="st8" d="M613.77,135.77c0,0.24-0.09,0.45-0.26,0.62L606.9,143l-1.24,1.24c-0.17,0.17-0.38,0.26-0.62,0.26
				c-0.24,0-0.45-0.09-0.62-0.26l-1.24-1.24l-3.3-3.31c-0.17-0.17-0.26-0.38-0.26-0.62c0-0.24,0.08-0.45,0.26-0.62l1.24-1.24
				c0.17-0.17,0.38-0.26,0.62-0.26c0.24,0,0.45,0.09,0.62,0.26l2.68,2.69l5.99-6c0.17-0.17,0.38-0.26,0.62-0.26s0.45,0.09,0.62,0.26
				l1.24,1.24C613.68,135.32,613.77,135.52,613.77,135.77z"/>
		</g>
	</g>
</g>
<g id="Tick1">
	<g>
		<circle class="st5" cx="338.96" cy="138.71" r="15"/>
		<g>
			<path class="st8" d="M345.58,135.77c0,0.24-0.08,0.45-0.26,0.62l-6.61,6.61l-1.24,1.24c-0.17,0.17-0.38,0.26-0.62,0.26
				s-0.45-0.09-0.62-0.26l-1.24-1.24l-3.31-3.31c-0.17-0.17-0.25-0.38-0.25-0.62c0-0.24,0.08-0.45,0.25-0.62l1.24-1.24
				c0.17-0.17,0.38-0.26,0.62-0.26s0.45,0.09,0.62,0.26l2.68,2.69l5.99-6c0.17-0.17,0.38-0.26,0.62-0.26c0.24,0,0.45,0.09,0.62,0.26
				l1.24,1.24C345.5,135.32,345.58,135.52,345.58,135.77z"/>
		</g>
	</g>
</g>
<g id="Lock17">
	<g>
		<circle class="st1" cx="338.57" cy="660.56" r="15"/>
		<g>
			<path class="st8" d="M344.48,660.02v5.88c0,0.27-0.1,0.5-0.29,0.69s-0.42,0.29-0.69,0.29h-9.8c-0.27,0-0.5-0.1-0.7-0.29
				c-0.19-0.19-0.29-0.42-0.29-0.69v-5.88c0-0.27,0.1-0.5,0.29-0.69c0.19-0.19,0.42-0.29,0.7-0.29h0.33v-1.96
				c0-1.25,0.45-2.33,1.35-3.23s1.97-1.35,3.22-1.35c1.25,0,2.33,0.45,3.23,1.35s1.35,1.97,1.35,3.23v1.96h0.33
				c0.27,0,0.5,0.1,0.69,0.29C344.38,659.52,344.48,659.75,344.48,660.02z M335.99,659.04h5.23v-1.96c0-0.72-0.25-1.34-0.77-1.85
				c-0.51-0.51-1.12-0.77-1.85-0.77c-0.72,0-1.34,0.26-1.85,0.77c-0.51,0.51-0.77,1.13-0.77,1.85V659.04z"/>
		</g>
	</g>
</g>
<g id="Lock16">
	<g>
		<circle class="st1" cx="134.34" cy="529.22" r="15"/>
		<g>
			<path class="st8" d="M140.25,528.69v5.88c0,0.27-0.09,0.5-0.29,0.69c-0.19,0.19-0.42,0.29-0.69,0.29h-9.8
				c-0.27,0-0.5-0.1-0.69-0.29c-0.19-0.19-0.29-0.42-0.29-0.69v-5.88c0-0.27,0.09-0.5,0.29-0.69c0.19-0.19,0.42-0.29,0.69-0.29h0.33
				v-1.96c0-1.25,0.45-2.33,1.35-3.23c0.9-0.9,1.97-1.35,3.23-1.35s2.33,0.45,3.23,1.35c0.9,0.9,1.35,1.97,1.35,3.23v1.96h0.33
				c0.27,0,0.5,0.1,0.69,0.29C140.16,528.18,140.25,528.41,140.25,528.69z M131.76,527.71h5.23v-1.96c0-0.72-0.26-1.34-0.77-1.85
				c-0.51-0.51-1.13-0.77-1.85-0.77c-0.72,0-1.34,0.25-1.85,0.77c-0.51,0.51-0.77,1.13-0.77,1.85V527.71z"/>
		</g>
	</g>
</g>
<g id="Lock15">
	<g>
		<circle class="st1" cx="403.48" cy="529.22" r="15"/>
		<g>
			<path class="st8" d="M409.39,528.69v5.88c0,0.27-0.1,0.5-0.29,0.69c-0.19,0.19-0.42,0.29-0.7,0.29h-9.8
				c-0.27,0-0.5-0.1-0.69-0.29c-0.19-0.19-0.29-0.42-0.29-0.69v-5.88c0-0.27,0.1-0.5,0.29-0.69s0.42-0.29,0.69-0.29h0.33v-1.96
				c0-1.25,0.45-2.33,1.35-3.23c0.9-0.9,1.97-1.35,3.23-1.35c1.25,0,2.33,0.45,3.23,1.35c0.9,0.9,1.35,1.97,1.35,3.23v1.96h0.33
				c0.27,0,0.5,0.1,0.7,0.29C409.29,528.18,409.39,528.41,409.39,528.69z M400.9,527.71h5.23v-1.96c0-0.72-0.25-1.34-0.77-1.85
				c-0.51-0.51-1.13-0.77-1.85-0.77s-1.34,0.25-1.85,0.77c-0.51,0.51-0.77,1.13-0.77,1.85V527.71z"/>
		</g>
	</g>
</g>
<g id="Lock14">
	<g>
		<circle class="st1" cx="671.2" cy="529.22" r="15"/>
		<g>
			<path class="st8" d="M677.11,528.69v5.88c0,0.27-0.1,0.5-0.29,0.69c-0.19,0.19-0.42,0.29-0.69,0.29h-9.8
				c-0.27,0-0.5-0.1-0.69-0.29c-0.19-0.19-0.29-0.42-0.29-0.69v-5.88c0-0.27,0.1-0.5,0.29-0.69s0.42-0.29,0.69-0.29h0.33v-1.96
				c0-1.25,0.45-2.33,1.35-3.23c0.9-0.9,1.97-1.35,3.23-1.35s2.33,0.45,3.23,1.35c0.9,0.9,1.35,1.97,1.35,3.23v1.96h0.33
				c0.27,0,0.5,0.1,0.69,0.29S677.11,528.41,677.11,528.69z M668.62,527.71h5.23v-1.96c0-0.72-0.25-1.34-0.77-1.85
				c-0.51-0.51-1.13-0.77-1.85-0.77s-1.34,0.25-1.85,0.77c-0.51,0.51-0.77,1.13-0.77,1.85V527.71z"/>
		</g>
	</g>
</g>
<g id="Lock13">
	<g>
		<circle class="st1" cx="940.35" cy="529.22" r="15"/>
		<g>
			<path class="st8" d="M946.26,528.69v5.88c0,0.27-0.09,0.5-0.29,0.69c-0.19,0.19-0.42,0.29-0.69,0.29h-9.8
				c-0.27,0-0.5-0.1-0.69-0.29c-0.19-0.19-0.29-0.42-0.29-0.69v-5.88c0-0.27,0.09-0.5,0.29-0.69s0.42-0.29,0.69-0.29h0.33v-1.96
				c0-1.25,0.45-2.33,1.35-3.23c0.9-0.9,1.97-1.35,3.23-1.35c1.25,0,2.33,0.45,3.23,1.35c0.9,0.9,1.35,1.97,1.35,3.23v1.96h0.33
				c0.27,0,0.5,0.1,0.69,0.29C946.16,528.18,946.26,528.41,946.26,528.69z M937.76,527.71h5.23v-1.96c0-0.72-0.25-1.34-0.77-1.85
				c-0.51-0.51-1.13-0.77-1.85-0.77c-0.72,0-1.34,0.25-1.85,0.77c-0.51,0.51-0.77,1.13-0.77,1.85V527.71z"/>
		</g>
	</g>
</g>
<g id="Lock12">
	<g>
		<circle class="st1" cx="1145.58" cy="399.63" r="15"/>
		<g>
			<path class="st8" d="M1151.49,399.1v5.88c0,0.27-0.09,0.5-0.29,0.69c-0.19,0.19-0.42,0.29-0.69,0.29h-9.8
				c-0.27,0-0.5-0.1-0.69-0.29c-0.19-0.19-0.29-0.42-0.29-0.69v-5.88c0-0.27,0.09-0.5,0.29-0.69c0.19-0.19,0.42-0.29,0.69-0.29h0.33
				v-1.96c0-1.25,0.45-2.33,1.35-3.23c0.9-0.9,1.97-1.35,3.23-1.35s2.33,0.45,3.23,1.35c0.9,0.9,1.35,1.97,1.35,3.23v1.96h0.33
				c0.27,0,0.5,0.1,0.69,0.29C1151.39,398.59,1151.49,398.83,1151.49,399.1z M1142.99,398.12h5.23v-1.96c0-0.72-0.26-1.34-0.77-1.85
				c-0.51-0.51-1.13-0.77-1.85-0.77c-0.72,0-1.34,0.26-1.85,0.77c-0.51,0.51-0.77,1.13-0.77,1.85V398.12z"/>
		</g>
	</g>
</g>
<g id="Lock11">
	<g>
		<circle class="st1" cx="876.43" cy="399.63" r="15"/>
		<g>
			<path class="st8" d="M882.34,399.1v5.88c0,0.27-0.1,0.5-0.29,0.69c-0.19,0.19-0.42,0.29-0.7,0.29h-9.8c-0.27,0-0.5-0.1-0.69-0.29
				c-0.19-0.19-0.29-0.42-0.29-0.69v-5.88c0-0.27,0.1-0.5,0.29-0.69c0.19-0.19,0.42-0.29,0.69-0.29h0.33v-1.96
				c0-1.25,0.45-2.33,1.35-3.23c0.9-0.9,1.97-1.35,3.23-1.35c1.25,0,2.33,0.45,3.23,1.35c0.9,0.9,1.35,1.97,1.35,3.23v1.96h0.33
				c0.27,0,0.5,0.1,0.7,0.29C882.24,398.59,882.34,398.83,882.34,399.1z M873.85,398.12h5.23v-1.96c0-0.72-0.25-1.34-0.77-1.85
				s-1.13-0.77-1.85-0.77s-1.34,0.26-1.85,0.77c-0.51,0.51-0.77,1.13-0.77,1.85V398.12z"/>
		</g>
	</g>
</g>
<g id="Lock10">
	<g>
		<circle class="st1" cx="607.71" cy="399.63" r="15"/>
		<g>
			<path class="st8" d="M613.62,399.1v5.88c0,0.27-0.09,0.5-0.29,0.69c-0.19,0.19-0.42,0.29-0.69,0.29h-9.8
				c-0.27,0-0.5-0.1-0.69-0.29c-0.19-0.19-0.29-0.42-0.29-0.69v-5.88c0-0.27,0.09-0.5,0.29-0.69c0.19-0.19,0.42-0.29,0.69-0.29h0.33
				v-1.96c0-1.25,0.45-2.33,1.35-3.23c0.9-0.9,1.97-1.35,3.23-1.35s2.33,0.45,3.23,1.35c0.9,0.9,1.35,1.97,1.35,3.23v1.96h0.33
				c0.27,0,0.5,0.1,0.69,0.29C613.53,398.59,613.62,398.83,613.62,399.1z M605.13,398.12h5.23v-1.96c0-0.72-0.25-1.34-0.77-1.85
				c-0.51-0.51-1.13-0.77-1.85-0.77c-0.72,0-1.34,0.26-1.85,0.77c-0.51,0.51-0.77,1.13-0.77,1.85V398.12z"/>
		</g>
	</g>
</g>
<g id="Lock9">
	<g>
		<circle class="st1" cx="338.57" cy="399.63" r="15"/>
		<g>
			<path class="st8" d="M344.48,399.1v5.88c0,0.27-0.1,0.5-0.29,0.69c-0.19,0.19-0.42,0.29-0.69,0.29h-9.8c-0.27,0-0.5-0.1-0.7-0.29
				c-0.19-0.19-0.29-0.42-0.29-0.69v-5.88c0-0.27,0.1-0.5,0.29-0.69c0.19-0.19,0.42-0.29,0.7-0.29h0.33v-1.96
				c0-1.25,0.45-2.33,1.35-3.23c0.9-0.9,1.97-1.35,3.22-1.35c1.25,0,2.33,0.45,3.23,1.35c0.9,0.9,1.35,1.97,1.35,3.23v1.96h0.33
				c0.27,0,0.5,0.1,0.69,0.29C344.38,398.59,344.48,398.83,344.48,399.1z M335.99,398.12h5.23v-1.96c0-0.72-0.25-1.34-0.77-1.85
				c-0.51-0.51-1.12-0.77-1.85-0.77c-0.72,0-1.34,0.26-1.85,0.77s-0.77,1.13-0.77,1.85V398.12z"/>
		</g>
	</g>
</g>
<g id="Lock8">
	<g>
		<circle class="st1" cx="134.34" cy="269.17" r="15"/>
		<g>
			<path class="st8" d="M140.25,268.64v5.88c0,0.27-0.09,0.5-0.29,0.69c-0.19,0.19-0.42,0.29-0.69,0.29h-9.8
				c-0.27,0-0.5-0.1-0.69-0.29c-0.19-0.19-0.29-0.42-0.29-0.69v-5.88c0-0.27,0.09-0.5,0.29-0.69c0.19-0.19,0.42-0.29,0.69-0.29h0.33
				v-1.96c0-1.25,0.45-2.33,1.35-3.23c0.9-0.9,1.97-1.35,3.23-1.35s2.33,0.45,3.23,1.35c0.9,0.9,1.35,1.97,1.35,3.23v1.96h0.33
				c0.27,0,0.5,0.1,0.69,0.29C140.16,268.13,140.25,268.36,140.25,268.64z M131.76,267.66h5.23v-1.96c0-0.72-0.26-1.34-0.77-1.85
				c-0.51-0.51-1.13-0.77-1.85-0.77c-0.72,0-1.34,0.26-1.85,0.77c-0.51,0.51-0.77,1.13-0.77,1.85V267.66z"/>
		</g>
	</g>
</g>
<g id="Lock7">
	<g>
		<circle class="st1" cx="403.48" cy="269.17" r="15"/>
		<g>
			<path class="st8" d="M409.39,268.64v5.88c0,0.27-0.1,0.5-0.29,0.69c-0.19,0.19-0.42,0.29-0.7,0.29h-9.8
				c-0.27,0-0.5-0.1-0.69-0.29c-0.19-0.19-0.29-0.42-0.29-0.69v-5.88c0-0.27,0.1-0.5,0.29-0.69c0.19-0.19,0.42-0.29,0.69-0.29h0.33
				v-1.96c0-1.25,0.45-2.33,1.35-3.23c0.9-0.9,1.97-1.35,3.23-1.35c1.25,0,2.33,0.45,3.23,1.35c0.9,0.9,1.35,1.97,1.35,3.23v1.96
				h0.33c0.27,0,0.5,0.1,0.7,0.29C409.29,268.13,409.39,268.36,409.39,268.64z M400.9,267.66h5.23v-1.96c0-0.72-0.25-1.34-0.77-1.85
				s-1.13-0.77-1.85-0.77s-1.34,0.26-1.85,0.77c-0.51,0.51-0.77,1.13-0.77,1.85V267.66z"/>
		</g>
	</g>
</g>
<g id="Lock6">
	<g>
		<circle class="st1" cx="671.2" cy="269.17" r="15"/>
		<g>
			<path class="st8" d="M677.11,268.64v5.88c0,0.27-0.1,0.5-0.29,0.69c-0.19,0.19-0.42,0.29-0.69,0.29h-9.8
				c-0.27,0-0.5-0.1-0.69-0.29c-0.19-0.19-0.29-0.42-0.29-0.69v-5.88c0-0.27,0.1-0.5,0.29-0.69c0.19-0.19,0.42-0.29,0.69-0.29h0.33
				v-1.96c0-1.25,0.45-2.33,1.35-3.23c0.9-0.9,1.97-1.35,3.23-1.35s2.33,0.45,3.23,1.35c0.9,0.9,1.35,1.97,1.35,3.23v1.96h0.33
				c0.27,0,0.5,0.1,0.69,0.29C677.01,268.13,677.11,268.36,677.11,268.64z M668.62,267.66h5.23v-1.96c0-0.72-0.25-1.34-0.77-1.85
				s-1.13-0.77-1.85-0.77s-1.34,0.26-1.85,0.77s-0.77,1.13-0.77,1.85V267.66z"/>
		</g>
	</g>
</g>
<g id="Lock5">
	<g>
		<circle class="st1" cx="940.35" cy="269.17" r="15"/>
		<g>
			<path class="st8" d="M946.26,268.64v5.88c0,0.27-0.09,0.5-0.29,0.69c-0.19,0.19-0.42,0.29-0.69,0.29h-9.8
				c-0.27,0-0.5-0.1-0.69-0.29c-0.19-0.19-0.29-0.42-0.29-0.69v-5.88c0-0.27,0.09-0.5,0.29-0.69c0.19-0.19,0.42-0.29,0.69-0.29h0.33
				v-1.96c0-1.25,0.45-2.33,1.35-3.23c0.9-0.9,1.97-1.35,3.23-1.35c1.25,0,2.33,0.45,3.23,1.35c0.9,0.9,1.35,1.97,1.35,3.23v1.96
				h0.33c0.27,0,0.5,0.1,0.69,0.29C946.16,268.13,946.26,268.36,946.26,268.64z M937.76,267.66h5.23v-1.96
				c0-0.72-0.25-1.34-0.77-1.85c-0.51-0.51-1.13-0.77-1.85-0.77c-0.72,0-1.34,0.26-1.85,0.77c-0.51,0.51-0.77,1.13-0.77,1.85V267.66
				z"/>
		</g>
	</g>
</g>
<g id="Lock4">
	<g>
		<circle class="st1" cx="1145.58" cy="138.71" r="15"/>
		<g>
			<path class="st8" d="M1151.49,138.17v5.88c0,0.27-0.09,0.5-0.29,0.69c-0.19,0.19-0.42,0.29-0.69,0.29h-9.8
				c-0.27,0-0.5-0.1-0.69-0.29c-0.19-0.19-0.29-0.42-0.29-0.69v-5.88c0-0.27,0.09-0.5,0.29-0.69c0.19-0.19,0.42-0.29,0.69-0.29h0.33
				v-1.96c0-1.25,0.45-2.33,1.35-3.23c0.9-0.9,1.97-1.35,3.23-1.35s2.33,0.45,3.23,1.35c0.9,0.9,1.35,1.97,1.35,3.23v1.96h0.33
				c0.27,0,0.5,0.1,0.69,0.29C1151.39,137.67,1151.49,137.9,1151.49,138.17z M1142.99,137.19h5.23v-1.96c0-0.72-0.26-1.34-0.77-1.85
				c-0.51-0.51-1.13-0.77-1.85-0.77c-0.72,0-1.34,0.26-1.85,0.77c-0.51,0.51-0.77,1.13-0.77,1.85V137.19z"/>
		</g>
	</g>
</g>
<g id="Lock3">
	<g>
		<circle class="st1" cx="876.43" cy="138.71" r="15"/>
		<g>
			<path class="st8" d="M882.34,138.17v5.88c0,0.27-0.1,0.5-0.29,0.69c-0.19,0.19-0.42,0.29-0.7,0.29h-9.8
				c-0.27,0-0.5-0.1-0.69-0.29c-0.19-0.19-0.29-0.42-0.29-0.69v-5.88c0-0.27,0.1-0.5,0.29-0.69c0.19-0.19,0.42-0.29,0.69-0.29h0.33
				v-1.96c0-1.25,0.45-2.33,1.35-3.23c0.9-0.9,1.97-1.35,3.23-1.35c1.25,0,2.33,0.45,3.23,1.35c0.9,0.9,1.35,1.97,1.35,3.23v1.96
				h0.33c0.27,0,0.5,0.1,0.7,0.29C882.24,137.67,882.34,137.9,882.34,138.17z M873.85,137.19h5.23v-1.96c0-0.72-0.25-1.34-0.77-1.85
				s-1.13-0.77-1.85-0.77s-1.34,0.26-1.85,0.77c-0.51,0.51-0.77,1.13-0.77,1.85V137.19z"/>
		</g>
	</g>
</g>
<g id="Lock2">
	<g>
		<circle class="st1" cx="607.71" cy="138.71" r="15"/>
		<g>
			<path class="st8" d="M613.62,138.17v5.88c0,0.27-0.09,0.5-0.29,0.69c-0.19,0.19-0.42,0.29-0.69,0.29h-9.8
				c-0.27,0-0.5-0.1-0.69-0.29c-0.19-0.19-0.29-0.42-0.29-0.69v-5.88c0-0.27,0.09-0.5,0.29-0.69c0.19-0.19,0.42-0.29,0.69-0.29h0.33
				v-1.96c0-1.25,0.45-2.33,1.35-3.23c0.9-0.9,1.97-1.35,3.23-1.35s2.33,0.45,3.23,1.35c0.9,0.9,1.35,1.97,1.35,3.23v1.96h0.33
				c0.27,0,0.5,0.1,0.69,0.29C613.53,137.67,613.62,137.9,613.62,138.17z M605.13,137.19h5.23v-1.96c0-0.72-0.25-1.34-0.77-1.85
				c-0.51-0.51-1.13-0.77-1.85-0.77c-0.72,0-1.34,0.26-1.85,0.77c-0.51,0.51-0.77,1.13-0.77,1.85V137.19z"/>
		</g>
	</g>
</g>
<g id="Lock1">
	<g>
		<circle class="st1" cx="338.57" cy="138.71" r="15"/>
		<g>
			<path class="st8" d="M344.48,138.17v5.88c0,0.27-0.1,0.5-0.29,0.69c-0.19,0.19-0.42,0.29-0.69,0.29h-9.8
				c-0.27,0-0.5-0.1-0.7-0.29c-0.19-0.19-0.29-0.42-0.29-0.69v-5.88c0-0.27,0.1-0.5,0.29-0.69c0.19-0.19,0.42-0.29,0.7-0.29h0.33
				v-1.96c0-1.25,0.45-2.33,1.35-3.23c0.9-0.9,1.97-1.35,3.22-1.35c1.25,0,2.33,0.45,3.23,1.35c0.9,0.9,1.35,1.97,1.35,3.23v1.96
				h0.33c0.27,0,0.5,0.1,0.69,0.29C344.38,137.67,344.48,137.9,344.48,138.17z M335.99,137.19h5.23v-1.96
				c0-0.72-0.25-1.34-0.77-1.85c-0.51-0.51-1.12-0.77-1.85-0.77c-0.72,0-1.34,0.26-1.85,0.77s-0.77,1.13-0.77,1.85V137.19z"/>
		</g>
	</g>
</g>
<g id="Number18">
	<circle class="st9" cx="602.14" cy="660.56" r="20"/>
	<g>
		<path class="st8" d="M611.13,660.96c0,1.33-0.43,2.46-1.29,3.38c-0.86,0.93-1.94,1.39-3.23,1.39c-1.81,0-3.32-0.97-4.52-2.92
			c-1.28,1.9-2.73,2.86-4.35,2.86c-1.37,0-2.49-0.44-3.34-1.33c-0.85-0.89-1.28-2.05-1.28-3.47c0-1.39,0.44-2.52,1.31-3.41
			c0.88-0.89,1.98-1.33,3.3-1.33c1.75,0,3.22,0.96,4.41,2.89c1.23-1.88,2.72-2.81,4.47-2.81c1.37,0,2.46,0.44,3.29,1.33
			C610.72,658.41,611.13,659.55,611.13,660.96z M597.86,663.27c0.55,0,1.07-0.19,1.54-0.58c0.47-0.39,0.94-0.99,1.42-1.82
			c-0.45-0.79-0.9-1.38-1.36-1.78c-0.47-0.4-1-0.59-1.62-0.59c-0.68,0-1.22,0.23-1.62,0.69c-0.4,0.46-0.59,1.03-0.59,1.71
			c0,0.7,0.2,1.27,0.61,1.71S597.17,663.27,597.86,663.27z M606.4,658.56c-0.53,0-1.04,0.19-1.51,0.58
			c-0.47,0.39-0.95,0.98-1.45,1.79c0.45,0.8,0.91,1.4,1.39,1.8c0.48,0.4,1.01,0.6,1.59,0.6c0.66,0,1.2-0.22,1.62-0.67
			c0.42-0.45,0.62-1.03,0.62-1.73s-0.21-1.27-0.64-1.71C607.61,658.78,607.06,658.56,606.4,658.56z"/>
	</g>
</g>
<g id="Number17">
	<circle class="st9" cx="333.96" cy="660.56" r="20"/>
	<text transform="matrix(1.0128 0 0 1 322.3958 667.4588)" class="st8 st2 st10">17</text>
</g>
<g id="Number16">
	<circle class="st9" cx="139.31" cy="530.1" r="20"/>
	<text transform="matrix(1.0128 0 0 1 127.7532 536.993)" class="st8 st2 st10">16</text>
</g>
<g id="Number15">
	<circle class="st9" cx="408.5" cy="530.1" r="20"/>
	<text transform="matrix(1.0128 0 0 1 396.939 536.993)" class="st8 st2 st10">15</text>
</g>
<g id="Number14">
	<circle class="st9" cx="676.69" cy="530.1" r="20"/>
	<text transform="matrix(1.0128 0 0 1 665.1238 536.993)" class="st8 st2 st10">14</text>
</g>
<g id="Number13">
	<circle class="st9" cx="945.35" cy="530.1" r="20"/>
	<text transform="matrix(1.0128 0 0 1 933.7862 536.993)" class="st8 st2 st10">13</text>
</g>
<g id="Number12">
	<circle class="st9" cx="1141.51" cy="399.64" r="20"/>
	<text transform="matrix(1.0128 0 0 1 1129.9513 406.5307)" class="st8 st2 st10">12</text>
</g>
<g id="Number11">
	<circle class="st9" cx="870.33" cy="399.64" r="20"/>
	<text transform="matrix(1.0128 0 0 1 858.7657 406.5307)" class="st8 st2 st10">11</text>
</g>
<g id="Number10">
	<circle class="st9" cx="602.14" cy="399.64" r="20"/>
	<text transform="matrix(1.0128 0 0 1 590.5809 406.5307)" class="st8 st2 st10">10</text>
</g>
<g id="Number9">
	<circle class="st9" cx="333.96" cy="399.64" r="20"/>
	<text transform="matrix(1.0128 0 0 1 322.3958 406.5307)" class="st8 st2 st10">09</text>
</g>
<g id="Number8">
	<circle class="st9" cx="139.31" cy="269.17" r="20"/>
	<text transform="matrix(1.0128 0 0 1 127.7532 276.0654)" class="st8 st2 st10">08</text>
</g>
<g id="Number7">
	<circle class="st9" cx="408.5" cy="269.17" r="20"/>
	<text transform="matrix(1.0128 0 0 1 396.939 276.0654)" class="st8 st2 st10">07</text>
</g>
<g id="Number6">
	<circle class="st9" cx="676.69" cy="269.17" r="20"/>
	<text transform="matrix(1.0128 0 0 1 665.1238 276.0654)" class="st8 st2 st10">06</text>
</g>
<g id="Number5">
	<circle class="st9" cx="945.35" cy="269.17" r="20"/>
	<text transform="matrix(1.0128 0 0 1 933.7862 276.0654)" class="st8 st2 st10">05</text>
</g>
<g id="Number4">
	<circle class="st9" cx="1141.51" cy="138.71" r="20"/>
	<text transform="matrix(1.0128 0 0 1 1129.9513 145.6033)" class="st8 st2 st10">04</text>
</g>
<g id="Number3">
	<circle class="st9" cx="870.33" cy="138.71" r="20"/>
	<text transform="matrix(1.0128 0 0 1 858.7657 145.6033)" class="st8 st2 st10">03</text>
</g>
<g id="Number2">
	<circle class="st9" cx="602.14" cy="138.71" r="20"/>
	<text transform="matrix(1.0128 0 0 1 590.5809 145.6033)" class="st8 st2 st10">02</text>
</g>
<g id="Number1">
	<circle class="st9" cx="333.96" cy="138.71" r="20"/>
	<text transform="matrix(1.0128 0 0 1 322.3958 145.6033)" class="st8 st2 st10">01</text>
</g>
</svg>
