<?xml version="1.0" encoding="utf-8"?>
<!-- Generator: Adobe Illustrator 23.0.4, SVG Export Plug-In . SVG Version: 6.00 Build 0)  -->
<svg version="1.1" id="Layer_1" xmlns="http://www.w3.org/2000/svg" xmlns:xlink="http://www.w3.org/1999/xlink" x="0px" y="0px"
	 viewBox="0 0 1280 800" style="enable-background:new 0 0 1280 800;" xml:space="preserve">
<style type="text/css">
	.st0{fill:none;stroke:#D0D2D3;stroke-width:2;stroke-miterlimit:10;}
	.st1{fill:#D0D2D3;}
	.st2{font-family:'Open Sans';font-weight: 600}
	.st3{font-size:18px;}
	.st4{fill:none;stroke:#70C48F;stroke-miterlimit:10;}
	.st5{fill:#70C48F;}
	.st6{font-size:14px;}
	.st7{fill:none;stroke:#000000;stroke-miterlimit:10;}
	.st8{fill:#FFFFFF;}
	.st9{fill:#F7941D;}
	.st10{font-size:20px;}
</style>
<g id="Line18">
	<line class="st0" x1="353" y1="660.6" x2="592.7" y2="660.6"/>
</g>
<g id="Line17">
	<path class="st0" d="M119.3,530.1h-17.8c-11,0-19.9,9-19.9,20v90.5c0,11,8.9,20,19.9,20H324"/>
</g>
<g id="Line16">
	<line class="st0" x1="149.3" y1="530.1" x2="388.5" y2="530.1"/>
</g>
<g id="Line15">
	<line class="st0" x1="418.5" y1="530.1" x2="657.7" y2="530.1"/>
</g>
<g id="Line14">
	<line class="st0" x1="686.2" y1="530.1" x2="926.9" y2="530.1"/>
</g>
<g id="Line13">
	<path class="st0" d="M1160.5,399.6h17.8c11,0,20,9,20,20v90.5c0,11-9,20-20,20h-223"/>
</g>
<g id="Line12">
	<line class="st0" x1="891.3" y1="399.6" x2="1130" y2="399.6"/>
</g>
<g id="Line11">
	<line class="st0" x1="622.1" y1="399.6" x2="860.8" y2="399.6"/>
</g>
<g id="Line10">
	<line class="st0" x1="353" y1="399.6" x2="592.1" y2="399.6"/>
</g>
<g id="Line9">
	<path class="st0" d="M119.3,269.2h-17.8c-11,0-19.9,9-19.9,20v90.5c0,11,8.9,20,19.9,20H324"/>
</g>
<g id="Line8">
	<line class="st0" x1="149.3" y1="269.2" x2="388.5" y2="269.2"/>
</g>
<g id="Line7">
	<line class="st0" x1="418.5" y1="269.2" x2="657.7" y2="269.2"/>
</g>
<g id="Line6">
	<line class="st0" x1="686.2" y1="269.2" x2="926.9" y2="269.2"/>
</g>
<g id="Line5">
	<path class="st0" d="M1160.5,138.7h17.8c11,0,20,8.9,20,20v90.5c0,11-9,20-20,20h-223"/>
</g>
<g id="Line4">
	<line class="st0" x1="891.3" y1="138.7" x2="1130" y2="138.7"/>
</g>
<g id="Line3">
	<line class="st0" x1="622.1" y1="138.7" x2="860.8" y2="138.7"/>
</g>
<g id="Line2">
	<line class="st0" x1="353" y1="138.7" x2="592.1" y2="138.7"/>
</g>
<g id="Text18">
	<text transform="matrix(1 0 0 1 511.6527 698.3033)" class="st1 st2 st3">Infnity Mode</text>
</g>
<g id="Text17">
	<g>
		<text transform="matrix(1 0 0 1 269.9807 698.3033)" class="st1 st2 st3">Distances</text>
	</g>
</g>
<g id="Text16">
	<g>
		<text transform="matrix(1 0 0 1 119.6287 567.8067)" class="st1 st2 st3">Normal Form</text>
	</g>
</g>
<g id="Text15">
	<text transform="matrix(1 0 0 1 388.0457 567.8067)" class="st1 st2 st3">Angle between Lines</text>
</g>
<g id="Text14">
	<text transform="matrix(1 0 0 1 655.321 567.8067)" class="st1 st2 st3">Standard Angle &amp; Slope</text>
</g>
<g id="Text13">
	<text transform="matrix(1 0 0 1 928.1501 567.8067)" class="st1 st2 st3">Point of Intersection</text>
</g>
<g id="Text12">
	<text transform="matrix(1 0 0 1 1041.9009 437.3751)" class="st1 st2 st3">General Form</text>
</g>
<g id="Text11">
	<text transform="matrix(1 0 0 1 708.2217 437.3751)" class="st1 st2 st3">Slope-Intercept Form</text>
</g>
<g id="Text10">
	<text transform="matrix(1 0 0 1 492.7899 437.3751)" class="st1 st2 st3">Intercept Form</text>
</g>
<g id="Text9">
	<g>
		<text transform="matrix(1 0 0 1 217.5884 437.3751)" class="st1 st2 st3">Two Point Form</text>
	</g>
</g>
<g id="Text8">
	<g>
		<text transform="matrix(1 0 0 1 119.6287 306.8758)" class="st1 st2 st3">Point-Slope Form</text>
	</g>
</g>
<g id="Text7">
	<text transform="matrix(1 0 0 1 388.0457 306.8758)" class="st1 st2 st3">Collinear Points</text>
</g>
<g id="Text6">
	<text transform="matrix(1 0 0 1 655.321 304.8743)" class="st1 st2 st3">Slope</text>
</g>
<g id="Text5">
	<text transform="matrix(1 0 0 1 928.1501 306.8758)" class="st1 st2 st3">Distance between Points</text>
</g>
<g id="Text4">
	<text transform="matrix(1 0 0 1 1075.0781 176.3773)" class="st1 st2 st3">ΔX and ΔY</text>
</g>
<g id="Text3">
	<text transform="matrix(1 0 0 1 660.9968 176.3773)" class="st1 st2 st3">Vertical &amp; Horizontal Lines</text>
</g>
<g id="Text2">
	<g>
		<text transform="matrix(1 0 0 1 445.216 176.3773)" class="st1 st2 st3">Identify Coordinates</text>
	</g>
</g>
<g id="Text1">
	<g>
		<text transform="matrix(1 0 0 1 231.0271 176.3773)" class="st1 st2 st3">Locate a Point</text>
	</g>
</g>
<g id="Game18">
	<g>
		<path class="st4" d="M613.8,737.9h-48.5c-3.9,0-7-3.1-7-7v-16c0-3.9,3.1-7,7-7h48.5c3.9,0,7,3.1,7,7v16
			C620.8,734.7,617.7,737.9,613.8,737.9z"/>
		<g>
			<text transform="matrix(1 0 0 1 568.1853 728.3849)" class="st5 st2 st6">GAME</text>
		</g>
	</g>
</g>
<g id="Game17">
	<g>
		<path class="st4" d="M345.4,737.9h-48.5c-3.9,0-7-3.1-7-7v-16c0-3.9,3.1-7,7-7h48.5c3.9,0,7,3.1,7,7v16
			C352.4,734.7,349.2,737.9,345.4,737.9z"/>
		<g>
			<text transform="matrix(1 0 0 1 299.7703 728.3849)" class="st5 st2 st6">GAME</text>
		</g>
	</g>
</g>
<g id="Game16">
	<g>
		<path class="st4" d="M268.7,607.4h-48.4c-3.9,0-7-3.1-7-7v-16c0-3.9,3.1-7,7-7h48.4c3.9,0,7,3.1,7,7v16
			C275.7,604.2,272.5,607.4,268.7,607.4z"/>
		<g>
			<text transform="matrix(1 0 0 1 223.0672 597.8879)" class="st5 st2 st6">GAME</text>
		</g>
	</g>
</g>
<g id="Game15">
	<g>
		<path class="st4" d="M537.1,607.4h-48.5c-3.9,0-7-3.1-7-7v-16c0-3.9,3.1-7,7-7h48.5c3.9,0,7,3.1,7,7v16
			C544.1,604.2,541,607.4,537.1,607.4z"/>
		<g>
			<text transform="matrix(1 0 0 1 491.4822 597.8879)" class="st5 st2 st6">GAME</text>
		</g>
	</g>
</g>
<g id="Game14">
	<g>
		<path class="st4" d="M804.3,607.4h-48.5c-3.9,0-7-3.1-7-7v-16c0-3.9,3.1-7,7-7h48.5c3.9,0,7,3.1,7,7v16
			C811.3,604.2,808.2,607.4,804.3,607.4z"/>
		<g>
			<text transform="matrix(1 0 0 1 758.7283 597.8879)" class="st5 st2 st6">GAME</text>
		</g>
	</g>
</g>
<g id="Game13">
	<g>
		<path class="st4" d="M1077.5,607.4H1029c-3.9,0-7-3.1-7-7v-16c0-3.9,3.1-7,7-7h48.4c3.9,0,7,3.1,7,7v16
			C1084.5,604.2,1081.3,607.4,1077.5,607.4z"/>
		<g>
			<text transform="matrix(1 0 0 1 1031.8757 597.8879)" class="st5 st2 st6">GAME</text>
		</g>
	</g>
</g>
<g id="Game12">
	<g>
		<path class="st4" d="M1154.2,476.9h-48.4c-3.9,0-7-3.1-7-7v-16c0-3.9,3.1-7,7-7h48.4c3.9,0,7,3.1,7,7v16
			C1161.2,473.8,1158.1,476.9,1154.2,476.9z"/>
		<g>
			<text transform="matrix(1 0 0 1 1108.5789 467.4563)" class="st5 st2 st6">GAME</text>
		</g>
	</g>
</g>
<g id="Game11">
	<g>
		<path class="st4" d="M881,476.9h-48.5c-3.9,0-7-3.1-7-7v-16c0-3.9,3.1-7,7-7H881c3.9,0,7,3.1,7,7v16
			C888,473.8,884.9,476.9,881,476.9z"/>
		<g>
			<text transform="matrix(1 0 0 1 835.4314 467.4563)" class="st5 st2 st6">GAME</text>
		</g>
	</g>
</g>
<g id="Game10">
	<g>
		<path class="st4" d="M613.8,476.9h-48.5c-3.9,0-7-3.1-7-7v-16c0-3.9,3.1-7,7-7h48.5c3.9,0,7,3.1,7,7v16
			C620.8,473.8,617.7,476.9,613.8,476.9z"/>
		<g>
			<text transform="matrix(1 0 0 1 568.1853 467.4563)" class="st5 st2 st6">GAME</text>
		</g>
	</g>
</g>
<g id="Game9">
	<g>
		<path class="st4" d="M345.4,476.9h-48.5c-3.9,0-7-3.1-7-7v-16c0-3.9,3.1-7,7-7h48.5c3.9,0,7,3.1,7,7v16
			C352.4,473.8,349.2,476.9,345.4,476.9z"/>
		<g>
			<text transform="matrix(1 0 0 1 299.7703 467.4563)" class="st5 st2 st6">GAME</text>
		</g>
	</g>
</g>
<g id="Game8">
	<g>
		<path class="st4" d="M268.7,346.4h-48.4c-3.9,0-7-3.1-7-7v-16c0-3.9,3.1-7,7-7h48.4c3.9,0,7,3.1,7,7v16
			C275.7,343.3,272.5,346.4,268.7,346.4z"/>
		<g>
			<text transform="matrix(1 0 0 1 223.0672 336.9576)" class="st5 st2 st6">GAME</text>
		</g>
	</g>
</g>
<g id="Game7">
	<g>
		<path class="st4" d="M537.1,346.4h-48.5c-3.9,0-7-3.1-7-7v-16c0-3.9,3.1-7,7-7h48.5c3.9,0,7,3.1,7,7v16
			C544.1,343.3,541,346.4,537.1,346.4z"/>
		<g>
			<text transform="matrix(1 0 0 1 491.4822 336.9576)" class="st5 st2 st6">GAME</text>
		</g>
	</g>
</g>
<g id="Game6">
	<g>
		<path class="st4" d="M804.3,346.4h-48.5c-3.9,0-7-3.1-7-7v-16c0-3.9,3.1-7,7-7h48.5c3.9,0,7,3.1,7,7v16
			C811.3,343.3,808.2,346.4,804.3,346.4z"/>
		<g>
			<text transform="matrix(1 0 0 1 758.7283 336.9576)" class="st5 st2 st6">GAME</text>
		</g>
	</g>
</g>
<g id="Game5">
	<g>
		<path class="st4" d="M1077.5,346.4H1029c-3.9,0-7-3.1-7-7v-16c0-3.9,3.1-7,7-7h48.4c3.9,0,7,3.1,7,7v16
			C1084.5,343.3,1081.3,346.4,1077.5,346.4z"/>
		<g>
			<text transform="matrix(1 0 0 1 1031.8757 336.9576)" class="st5 st2 st6">GAME</text>
		</g>
	</g>
</g>
<g id="Game4">
	<g>
		<path class="st4" d="M1154.2,215.9h-48.4c-3.9,0-7-3.1-7-7v-16c0-3.9,3.1-7,7-7h48.4c3.9,0,7,3.1,7,7v16
			C1161.2,212.8,1158.1,215.9,1154.2,215.9z"/>
		<g>
			<text transform="matrix(1 0 0 1 1108.5789 206.4589)" class="st5 st2 st6">GAME</text>
		</g>
	</g>
</g>
<g id="Game3">
	<g>
		<path class="st4" d="M881,215.9h-48.5c-3.9,0-7-3.1-7-7v-16c0-3.9,3.1-7,7-7H881c3.9,0,7,3.1,7,7v16
			C888,212.8,884.9,215.9,881,215.9z"/>
		<g>
			<text transform="matrix(1 0 0 1 835.4314 206.4589)" class="st5 st2 st6">GAME</text>
		</g>
	</g>
</g>
<g id="Game2">
	<g>
		<path class="st4" d="M613.8,215.9h-48.5c-3.9,0-7-3.1-7-7v-16c0-3.9,3.1-7,7-7h48.5c3.9,0,7,3.1,7,7v16
			C620.8,212.8,617.7,215.9,613.8,215.9z"/>
		<g>
			<text transform="matrix(1 0 0 1 568.1853 206.4589)" class="st5 st2 st6">GAME</text>
		</g>
	</g>
</g>
<g id="Game1">
	<g>
		<path class="st4" d="M345.4,215.9h-48.5c-3.9,0-7-3.1-7-7v-16c0-3.9,3.1-7,7-7h48.5c3.9,0,7,3.1,7,7v16
			C352.4,212.8,349.2,215.9,345.4,215.9z"/>
		<g>
			<text transform="matrix(1 0 0 1 299.7703 206.4589)" class="st5 st2 st6">GAME</text>
		</g>
	</g>
</g>
<g id="Tutorial17">
	<g>
		<path class="st4" d="M277.8,737.9h-74.7c-3.9,0-7-3.1-7-7v-16c0-3.9,3.1-7,7-7h74.7c3.9,0,7,3.1,7,7v16
			C284.8,734.7,281.6,737.9,277.8,737.9z"/>
		<g>
			<text transform="matrix(1 0 0 1 205.8816 728.3849)" class="st5 st2 st6">TUTORIAL</text>
		</g>
	</g>
</g>
<g id="Tutorial16">
	<g>
		<path class="st4" d="M201.1,607.4h-74.7c-3.9,0-7-3.1-7-7v-16c0-3.9,3.1-7,7-7h74.7c3.9,0,7,3.1,7,7v16
			C208.1,604.2,204.9,607.4,201.1,607.4z"/>
		<g>
			<text transform="matrix(1 0 0 1 129.1785 597.8879)" class="st5 st2 st6">TUTORIAL</text>
		</g>
	</g>
</g>
<g id="Tutorial15">
	<g>
		<path class="st4" d="M469.5,607.4h-74.7c-3.9,0-7-3.1-7-7v-16c0-3.9,3.1-7,7-7h74.7c3.9,0,7,3.1,7,7v16
			C476.5,604.2,473.4,607.4,469.5,607.4z"/>
		<g>
			<text transform="matrix(1 0 0 1 397.5935 597.8879)" class="st5 st2 st6">TUTORIAL</text>
		</g>
	</g>
</g>
<g id="Tutorial14">
	<g>
		<path class="st4" d="M736.7,607.4H662c-3.9,0-7-3.1-7-7v-16c0-3.9,3.1-7,7-7h74.7c3.9,0,7,3.1,7,7v16
			C743.7,604.2,740.6,607.4,736.7,607.4z"/>
		<g>
			<text transform="matrix(1 0 0 1 664.8396 597.8879)" class="st5 st2 st6">TUTORIAL</text>
		</g>
	</g>
</g>
<g id="Tutorial13">
	<g>
		<path class="st4" d="M1009.9,607.4h-74.7c-3.9,0-7-3.1-7-7v-16c0-3.9,3.1-7,7-7h74.7c3.9,0,7,3.1,7,7v16
			C1016.9,604.2,1013.8,607.4,1009.9,607.4z"/>
		<g>
			<text transform="matrix(1 0 0 1 937.9871 597.8879)" class="st5 st2 st6">TUTORIAL</text>
		</g>
	</g>
</g>
<g id="Tutorial12">
	<g>
		<path class="st4" d="M1086.6,476.9h-74.7c-3.9,0-7-3.1-7-7v-16c0-3.9,3.1-7,7-7h74.7c3.9,0,7,3.1,7,7v16
			C1093.6,473.8,1090.5,476.9,1086.6,476.9z"/>
		<g>
			<text transform="matrix(1 0 0 1 1014.6902 467.4563)" class="st5 st2 st6">TUTORIAL</text>
		</g>
	</g>
</g>
<g id="Tutorial11">
	<g>
		<path class="st4" d="M813.5,476.9h-74.8c-3.9,0-7-3.1-7-7v-16c0-3.9,3.1-7,7-7h74.7c3.9,0,7,3.1,7,7v16
			C820.5,473.8,817.3,476.9,813.5,476.9z"/>
		<g>
			<text transform="matrix(1 0 0 1 741.5427 467.4563)" class="st5 st2 st6">TUTORIAL</text>
		</g>
	</g>
</g>
<g id="Tutorial10">
	<g>
		<path class="st4" d="M546.2,476.9h-74.7c-3.9,0-7-3.1-7-7v-16c0-3.9,3.1-7,7-7h74.7c3.9,0,7,3.1,7,7v16
			C553.2,473.8,550.1,476.9,546.2,476.9z"/>
		<g>
			<text transform="matrix(1 0 0 1 474.2966 467.4563)" class="st5 st2 st6">TUTORIAL</text>
		</g>
	</g>
</g>
<g id="Tutorial9">
	<g>
		<path class="st4" d="M277.8,476.9h-74.7c-3.9,0-7-3.1-7-7v-16c0-3.9,3.1-7,7-7h74.7c3.9,0,7,3.1,7,7v16
			C284.8,473.8,281.6,476.9,277.8,476.9z"/>
		<g>
			<text transform="matrix(1 0 0 1 205.8816 467.4563)" class="st5 st2 st6">TUTORIAL</text>
		</g>
	</g>
</g>
<g id="Tutorial8">
	<g>
		<path class="st4" d="M201.1,346.4h-74.7c-3.9,0-7-3.1-7-7v-16c0-3.9,3.1-7,7-7h74.7c3.9,0,7,3.1,7,7v16
			C208.1,343.3,204.9,346.4,201.1,346.4z"/>
		<g>
			<text transform="matrix(1 0 0 1 129.1785 336.9576)" class="st5 st2 st6">TUTORIAL</text>
		</g>
	</g>
</g>
<g id="Tutorial7">
	<g>
		<path class="st4" d="M469.5,346.4h-74.7c-3.9,0-7-3.1-7-7v-16c0-3.9,3.1-7,7-7h74.7c3.9,0,7,3.1,7,7v16
			C476.5,343.3,473.4,346.4,469.5,346.4z"/>
		<g>
			<text transform="matrix(1 0 0 1 397.5935 336.9576)" class="st5 st2 st6">TUTORIAL</text>
		</g>
	</g>
</g>
<g id="Tutorial6">
	<g>
		<path class="st4" d="M736.7,346.4H662c-3.9,0-7-3.1-7-7v-16c0-3.9,3.1-7,7-7h74.7c3.9,0,7,3.1,7,7v16
			C743.7,343.3,740.6,346.4,736.7,346.4z"/>
		<g>
			<text transform="matrix(1 0 0 1 664.8396 336.9576)" class="st5 st2 st6">TUTORIAL</text>
		</g>
	</g>
</g>
<g id="Tutorial5">
	<g>
		<path class="st4" d="M1009.9,346.4h-74.7c-3.9,0-7-3.1-7-7v-16c0-3.9,3.1-7,7-7h74.7c3.9,0,7,3.1,7,7v16
			C1016.9,343.3,1013.8,346.4,1009.9,346.4z"/>
		<g>
			<text transform="matrix(1 0 0 1 937.9871 336.9576)" class="st5 st2 st6">TUTORIAL</text>
		</g>
	</g>
</g>
<g id="Tutorial4">
	<g>
		<path class="st4" d="M1086.6,215.9h-74.7c-3.9,0-7-3.1-7-7v-16c0-3.9,3.1-7,7-7h74.7c3.9,0,7,3.1,7,7v16
			C1093.6,212.8,1090.5,215.9,1086.6,215.9z"/>
		<g>
			<text transform="matrix(1 0 0 1 1014.6902 206.4589)" class="st5 st2 st6">TUTORIAL</text>
		</g>
	</g>
</g>
<g id="Tutorial3">
	<g>
		<path class="st4" d="M813.5,215.9h-74.8c-3.9,0-7-3.1-7-7v-16c0-3.9,3.1-7,7-7h74.7c3.9,0,7,3.1,7,7v16
			C820.5,212.8,817.3,215.9,813.5,215.9z"/>
		<g>
			<text transform="matrix(1 0 0 1 741.5427 206.4589)" class="st5 st2 st6">TUTORIAL</text>
		</g>
	</g>
</g>
<g id="Tutorial2">
	<g>
		<path class="st4" d="M546.2,215.9h-74.7c-3.9,0-7-3.1-7-7v-16c0-3.9,3.1-7,7-7h74.7c3.9,0,7,3.1,7,7v16
			C553.2,212.8,550.1,215.9,546.2,215.9z"/>
		<g>
			<text transform="matrix(1 0 0 1 474.2966 206.4589)" class="st5 st2 st6">TUTORIAL</text>
		</g>
	</g>
</g>
<g id="Tutorial1">
	<g>
		<path class="st4" d="M277.8,215.9h-74.7c-3.9,0-7-3.1-7-7v-16c0-3.9,3.1-7,7-7h74.7c3.9,0,7,3.1,7,7v16
			C284.8,212.8,281.6,215.9,277.8,215.9z"/>
		<g>
			<text transform="matrix(1 0 0 1 205.8816 206.4589)" class="st5 st2 st6">TUTORIAL</text>
		</g>
	</g>
</g>
<g id="Begin17">
	<g>
		<path class="st7" d="M345.4,737.9H227.5c-3.9,0-7-3.1-7-7v-16c0-3.9,3.1-7,7-7h117.9c3.9,0,7,3.1,7,7v16
			C352.4,734.7,349.2,737.9,345.4,737.9z"/>
		<g>
			<text transform="matrix(1 0 0 1 230.3699 728.3849)" class="st2 st6">BEGIN TUTORIAL</text>
		</g>
	</g>
</g>
<g id="Begin16">
	<g>
		<path class="st7" d="M244.2,607.4H126.3c-3.9,0-7-3.1-7-7v-16c0-3.9,3.1-7,7-7h117.9c3.9,0,7,3.1,7,7v16
			C251.2,604.2,248.1,607.4,244.2,607.4z"/>
		<g>
			<text transform="matrix(1 0 0 1 129.178 597.8879)" class="st2 st6">BEGIN TUTORIAL</text>
		</g>
	</g>
</g>
<g id="Begin15">
	<g>
		<path class="st7" d="M513.2,607.4H395.3c-3.9,0-7-3.1-7-7v-16c0-3.9,3.1-7,7-7h117.9c3.9,0,7,3.1,7,7v16
			C520.2,604.2,517,607.4,513.2,607.4z"/>
		<g>
			<text transform="matrix(1 0 0 1 398.1687 597.8879)" class="st2 st6">BEGIN TUTORIAL</text>
		</g>
	</g>
</g>
<g id="Begin14">
	<g>
		<path class="st7" d="M779.9,607.4H662c-3.9,0-7-3.1-7-7v-16c0-3.9,3.1-7,7-7h117.8c3.9,0,7,3.1,7,7v16
			C786.9,604.2,783.8,607.4,779.9,607.4z"/>
		<g>
			<text transform="matrix(1 0 0 1 664.8689 597.8879)" class="st2 st6">BEGIN TUTORIAL</text>
		</g>
	</g>
</g>
<g id="Begin13">
	<g>
		<path class="st7" d="M1053,607.4H935.2c-3.9,0-7-3.1-7-7v-16c0-3.9,3.1-7,7-7H1053c3.9,0,7,3.1,7,7v16
			C1060,604.2,1056.9,607.4,1053,607.4z"/>
		<g>
			<text transform="matrix(1 0 0 1 937.9861 597.8879)" class="st2 st6">BEGIN TUTORIAL</text>
		</g>
	</g>
</g>
<g id="Begin12">
	<g>
		<path class="st7" d="M1154.2,476.9h-117.8c-3.9,0-7-3.1-7-7v-16c0-3.9,3.1-7,7-7h117.8c3.9,0,7,3.1,7,7v16
			C1161.2,473.8,1158.1,476.9,1154.2,476.9z"/>
		<g>
			<text transform="matrix(1 0 0 1 1039.1785 467.4563)" class="st2 st6">BEGIN TUTORIAL</text>
		</g>
	</g>
</g>
<g id="Begin11">
	<g>
		<path class="st7" d="M881.1,476.9H763.2c-3.9,0-7-3.1-7-7v-16c0-3.9,3.1-7,7-7h117.8c3.9,0,7,3.1,7,7v16
			C888.1,473.8,884.9,476.9,881.1,476.9z"/>
		<g>
			<text transform="matrix(1 0 0 1 766.0613 467.4563)" class="st2 st6">BEGIN TUTORIAL</text>
		</g>
	</g>
</g>
<g id="Begin10">
	<g>
		<path class="st7" d="M614.4,476.9H496.5c-3.9,0-7-3.1-7-7v-16c0-3.9,3.1-7,7-7h117.9c3.9,0,7,3.1,7,7v16
			C621.4,473.8,618.2,476.9,614.4,476.9z"/>
		<g>
			<text transform="matrix(1 0 0 1 499.3611 467.4563)" class="st2 st6">BEGIN TUTORIAL</text>
		</g>
	</g>
</g>
<g id="Begin9">
	<g>
		<path class="st7" d="M345.4,476.9H227.5c-3.9,0-7-3.1-7-7v-16c0-3.9,3.1-7,7-7h117.9c3.9,0,7,3.1,7,7v16
			C352.4,473.8,349.2,476.9,345.4,476.9z"/>
		<g>
			<text transform="matrix(1 0 0 1 230.3699 467.4563)" class="st2 st6">BEGIN TUTORIAL</text>
		</g>
	</g>
</g>
<g id="Begin8">
	<g>
		<path class="st7" d="M244.2,346.4H126.3c-3.9,0-7-3.1-7-7v-16c0-3.9,3.1-7,7-7h117.9c3.9,0,7,3.1,7,7v16
			C251.2,343.3,248.1,346.4,244.2,346.4z"/>
		<g>
			<text transform="matrix(1 0 0 1 129.178 336.9576)" class="st2 st6">BEGIN TUTORIAL</text>
		</g>
	</g>
</g>
<g id="Begin7">
	<g>
		<path class="st7" d="M513.2,346.4H395.3c-3.9,0-7-3.1-7-7v-16c0-3.9,3.1-7,7-7h117.9c3.9,0,7,3.1,7,7v16
			C520.2,343.3,517,346.4,513.2,346.4z"/>
		<g>
			<text transform="matrix(1 0 0 1 398.1687 336.9576)" class="st2 st6">BEGIN TUTORIAL</text>
		</g>
	</g>
</g>
<g id="Begin6">
	<g>
		<path class="st7" d="M779.9,346.4H662c-3.9,0-7-3.1-7-7v-16c0-3.9,3.1-7,7-7h117.8c3.9,0,7,3.1,7,7v16
			C786.9,343.3,783.8,346.4,779.9,346.4z"/>
		<g>
			<text transform="matrix(1 0 0 1 664.8689 336.9576)" class="st2 st6">BEGIN TUTORIAL</text>
		</g>
	</g>
</g>
<g id="Begin5">
	<g>
		<path class="st7" d="M1053,346.4H935.2c-3.9,0-7-3.1-7-7v-16c0-3.9,3.1-7,7-7H1053c3.9,0,7,3.1,7,7v16
			C1060,343.3,1056.9,346.4,1053,346.4z"/>
		<g>
			<text transform="matrix(1 0 0 1 937.9861 336.9576)" class="st2 st6">BEGIN TUTORIAL</text>
		</g>
	</g>
</g>
<g id="Begin4">
	<g>
		<path class="st7" d="M1154.2,215.9h-117.8c-3.9,0-7-3.1-7-7v-16c0-3.9,3.1-7,7-7h117.8c3.9,0,7,3.1,7,7v16
			C1161.2,212.8,1158.1,215.9,1154.2,215.9z"/>
		<g>
			<text transform="matrix(1 0 0 1 1039.1785 206.4589)" class="st2 st6">BEGIN TUTORIAL</text>
		</g>
	</g>
</g>
<g id="Begin3">
	<g>
		<path class="st7" d="M881.1,215.9H763.2c-3.9,0-7-3.1-7-7v-16c0-3.9,3.1-7,7-7h117.8c3.9,0,7,3.1,7,7v16
			C888.1,212.8,884.9,215.9,881.1,215.9z"/>
		<g>
			<text transform="matrix(1 0 0 1 766.0613 206.4589)" class="st2 st6">BEGIN TUTORIAL</text>
		</g>
	</g>
</g>
<g id="Begin2">
	<g>
		<path class="st7" d="M614.4,215.9H496.5c-3.9,0-7-3.1-7-7v-16c0-3.9,3.1-7,7-7h117.9c3.9,0,7,3.1,7,7v16
			C621.4,212.8,618.2,215.9,614.4,215.9z"/>
		<g>
			<text transform="matrix(1 0 0 1 499.3611 206.4589)" class="st2 st6">BEGIN TUTORIAL</text>
		</g>
	</g>
</g>
<g id="Begin1">
	<g>
		<path class="st7" d="M345.4,215.9H227.5c-3.9,0-7-3.1-7-7v-16c0-3.9,3.1-7,7-7h117.9c3.9,0,7,3.1,7,7v16
			C352.4,212.8,349.2,215.9,345.4,215.9z"/>
		<g>
			<text transform="matrix(1 0 0 1 230.3699 206.4589)" class="st2 st6">BEGIN TUTORIAL</text>
		</g>
	</g>
</g>
<g id="Tick17">
	<g>
		<circle class="st5" cx="339" cy="660.6" r="15"/>
		<g>
			<path class="st8" d="M345.6,657.6c0,0.2-0.1,0.5-0.3,0.6l-6.6,6.6l-1.2,1.2c-0.2,0.2-0.4,0.3-0.6,0.3s-0.5-0.1-0.6-0.3l-1.2-1.2
				l-3.3-3.3c-0.2-0.2-0.2-0.4-0.2-0.6s0.1-0.5,0.2-0.6l1.2-1.2c0.2-0.2,0.4-0.3,0.6-0.3s0.5,0.1,0.6,0.3l2.7,2.7l6-6
				c0.2-0.2,0.4-0.3,0.6-0.3s0.5,0.1,0.6,0.3l1.2,1.2C345.5,657.2,345.6,657.4,345.6,657.6z"/>
		</g>
	</g>
</g>
<g id="Tick16">
	<g>
		<circle class="st5" cx="134.3" cy="529.1" r="15"/>
		<g>
			<path class="st8" d="M141,526.2c0,0.2-0.1,0.5-0.3,0.6l-6.6,6.6l-1.2,1.2c-0.2,0.2-0.4,0.3-0.6,0.3c-0.2,0-0.4-0.1-0.6-0.3
				l-1.2-1.2l-3.3-3.3c-0.2-0.2-0.3-0.4-0.3-0.6s0.1-0.5,0.3-0.6l1.2-1.2c0.2-0.2,0.4-0.3,0.6-0.3c0.2,0,0.4,0.1,0.6,0.3l2.7,2.7
				l6-6c0.2-0.2,0.4-0.3,0.6-0.3c0.2,0,0.4,0.1,0.6,0.3l1.2,1.2C140.9,525.7,141,525.9,141,526.2z"/>
		</g>
	</g>
</g>
<g id="Tick15">
	<g>
		<circle class="st5" cx="403.5" cy="529.1" r="15"/>
		<g>
			<path class="st8" d="M410.1,526.2c0,0.2-0.1,0.5-0.3,0.6l-6.6,6.6l-1.2,1.2c-0.2,0.2-0.4,0.3-0.6,0.3s-0.5-0.1-0.6-0.3l-1.2-1.2
				l-3.3-3.3c-0.2-0.2-0.2-0.4-0.2-0.6s0.1-0.5,0.2-0.6l1.2-1.2c0.2-0.2,0.4-0.3,0.6-0.3s0.5,0.1,0.6,0.3l2.7,2.7l6-6
				c0.2-0.2,0.4-0.3,0.6-0.3s0.5,0.1,0.6,0.3l1.2,1.2C410,525.7,410.1,525.9,410.1,526.2z"/>
		</g>
	</g>
</g>
<g id="Tick14">
	<g>
		<circle class="st5" cx="671.2" cy="529.1" r="15"/>
		<g>
			<path class="st8" d="M677.8,526.2c0,0.2-0.1,0.5-0.3,0.6l-6.6,6.6l-1.2,1.2c-0.2,0.2-0.4,0.3-0.6,0.3s-0.5-0.1-0.6-0.3l-1.2-1.2
				l-3.3-3.3c-0.2-0.2-0.3-0.4-0.3-0.6s0.1-0.5,0.3-0.6l1.2-1.2c0.2-0.2,0.4-0.3,0.6-0.3s0.5,0.1,0.6,0.3l2.7,2.7l6-6
				c0.2-0.2,0.4-0.3,0.6-0.3s0.5,0.1,0.6,0.3l1.2,1.2C677.7,525.7,677.8,525.9,677.8,526.2z"/>
		</g>
	</g>
</g>
<g id="Tick13">
	<g>
		<circle class="st5" cx="940.3" cy="529.1" r="15"/>
		<g>
			<path class="st8" d="M947,526.2c0,0.2-0.1,0.5-0.3,0.6l-6.6,6.6l-1.2,1.2c-0.2,0.2-0.4,0.3-0.6,0.3s-0.5-0.1-0.6-0.3l-1.2-1.2
				l-3.3-3.3c-0.2-0.2-0.3-0.4-0.3-0.6s0.1-0.5,0.3-0.6l1.2-1.2c0.2-0.2,0.4-0.3,0.6-0.3s0.5,0.1,0.6,0.3l2.7,2.7l6-6
				c0.2-0.2,0.4-0.3,0.6-0.3s0.5,0.1,0.6,0.3l1.2,1.2C946.9,525.7,947,525.9,947,526.2z"/>
		</g>
	</g>
</g>
<g id="Tick12">
	<g>
		<circle class="st5" cx="1145" cy="399.6" r="15"/>
		<g>
			<path class="st8" d="M1151.6,396.7c0,0.2-0.1,0.5-0.3,0.6l-6.6,6.6l-1.2,1.2c-0.2,0.2-0.4,0.3-0.6,0.3s-0.4-0.1-0.6-0.3l-1.2-1.2
				l-3.3-3.3c-0.2-0.2-0.2-0.4-0.2-0.6s0.1-0.5,0.2-0.6l1.2-1.2c0.2-0.2,0.4-0.3,0.6-0.3s0.4,0.1,0.6,0.3l2.7,2.7l6-6
				c0.2-0.2,0.4-0.3,0.6-0.3s0.4,0.1,0.6,0.3l1.2,1.2C1151.5,396.2,1151.6,396.5,1151.6,396.7z"/>
		</g>
	</g>
</g>
<g id="Tick11">
	<g>
		<circle class="st5" cx="875.8" cy="399.6" r="15"/>
		<g>
			<path class="st8" d="M882.4,396.7c0,0.2-0.1,0.5-0.3,0.6l-6.6,6.6l-1.2,1.2c-0.2,0.2-0.4,0.3-0.6,0.3s-0.5-0.1-0.6-0.3l-1.2-1.2
				l-3.3-3.3c-0.2-0.2-0.2-0.4-0.2-0.6s0.1-0.5,0.2-0.6l1.2-1.2c0.2-0.2,0.4-0.3,0.6-0.3s0.5,0.1,0.6,0.3l2.7,2.7l6-6
				c0.2-0.2,0.4-0.3,0.6-0.3s0.5,0.1,0.6,0.3l1.2,1.2C882.4,396.2,882.4,396.5,882.4,396.7z"/>
		</g>
	</g>
</g>
<g id="Tick10">
	<g>
		<circle class="st5" cx="607.1" cy="399.6" r="15"/>
		<g>
			<path class="st8" d="M613.8,396.7c0,0.2-0.1,0.5-0.3,0.6l-6.6,6.6l-1.2,1.2c-0.2,0.2-0.4,0.3-0.6,0.3s-0.5-0.1-0.6-0.3l-1.2-1.2
				l-3.3-3.3c-0.2-0.2-0.3-0.4-0.3-0.6s0.1-0.5,0.3-0.6l1.2-1.2c0.2-0.2,0.4-0.3,0.6-0.3s0.5,0.1,0.6,0.3l2.7,2.7l6-6
				c0.2-0.2,0.4-0.3,0.6-0.3s0.5,0.1,0.6,0.3l1.2,1.2C613.7,396.2,613.8,396.5,613.8,396.7z"/>
		</g>
	</g>
</g>
<g id="Tick9">
	<g>
		<circle class="st5" cx="339" cy="399.6" r="15"/>
		<g>
			<path class="st8" d="M345.6,396.7c0,0.2-0.1,0.5-0.3,0.6l-6.6,6.6l-1.2,1.2c-0.2,0.2-0.4,0.3-0.6,0.3s-0.5-0.1-0.6-0.3l-1.2-1.2
				l-3.3-3.3c-0.2-0.2-0.2-0.4-0.2-0.6s0.1-0.5,0.2-0.6l1.2-1.2c0.2-0.2,0.4-0.3,0.6-0.3s0.5,0.1,0.6,0.3l2.7,2.7l6-6
				c0.2-0.2,0.4-0.3,0.6-0.3s0.5,0.1,0.6,0.3l1.2,1.2C345.5,396.2,345.6,396.5,345.6,396.7z"/>
		</g>
	</g>
</g>
<g id="Tick8">
	<g>
		<circle class="st5" cx="134.3" cy="269.2" r="15"/>
		<g>
			<path class="st8" d="M141,266.2c0,0.2-0.1,0.5-0.3,0.6l-6.6,6.6l-1.2,1.2c-0.2,0.2-0.4,0.3-0.6,0.3c-0.2,0-0.4-0.1-0.6-0.3
				l-1.2-1.2l-3.3-3.3c-0.2-0.2-0.3-0.4-0.3-0.6s0.1-0.5,0.3-0.6l1.2-1.2c0.2-0.2,0.4-0.3,0.6-0.3c0.2,0,0.4,0.1,0.6,0.3l2.7,2.7
				l6-6c0.2-0.2,0.4-0.3,0.6-0.3c0.2,0,0.4,0.1,0.6,0.3l1.2,1.2C140.9,265.8,141,266,141,266.2z"/>
		</g>
	</g>
</g>
<g id="Tick7">
	<g>
		<circle class="st5" cx="403.5" cy="269.2" r="15"/>
		<g>
			<path class="st8" d="M410.1,266.2c0,0.2-0.1,0.5-0.3,0.6l-6.6,6.6l-1.2,1.2c-0.2,0.2-0.4,0.3-0.6,0.3s-0.5-0.1-0.6-0.3l-1.2-1.2
				l-3.3-3.3c-0.2-0.2-0.2-0.4-0.2-0.6s0.1-0.5,0.2-0.6l1.2-1.2c0.2-0.2,0.4-0.3,0.6-0.3s0.5,0.1,0.6,0.3l2.7,2.7l6-6
				c0.2-0.2,0.4-0.3,0.6-0.3s0.5,0.1,0.6,0.3l1.2,1.2C410,265.8,410.1,266,410.1,266.2z"/>
		</g>
	</g>
</g>
<g id="Tick6">
	<g>
		<circle class="st5" cx="671.2" cy="269.2" r="15"/>
		<g>
			<path class="st8" d="M677.8,266.2c0,0.2-0.1,0.5-0.3,0.6l-6.6,6.6l-1.2,1.2c-0.2,0.2-0.4,0.3-0.6,0.3s-0.5-0.1-0.6-0.3l-1.2-1.2
				l-3.3-3.3c-0.2-0.2-0.3-0.4-0.3-0.6s0.1-0.5,0.3-0.6l1.2-1.2c0.2-0.2,0.4-0.3,0.6-0.3s0.5,0.1,0.6,0.3l2.7,2.7l6-6
				c0.2-0.2,0.4-0.3,0.6-0.3s0.5,0.1,0.6,0.3l1.2,1.2C677.7,265.8,677.8,266,677.8,266.2z"/>
		</g>
	</g>
</g>
<g id="Tick5">
	<g>
		<circle class="st5" cx="940.3" cy="269.2" r="15"/>
		<g>
			<path class="st8" d="M947,266.2c0,0.2-0.1,0.5-0.3,0.6l-6.6,6.6l-1.2,1.2c-0.2,0.2-0.4,0.3-0.6,0.3s-0.5-0.1-0.6-0.3l-1.2-1.2
				l-3.3-3.3c-0.2-0.2-0.3-0.4-0.3-0.6s0.1-0.5,0.3-0.6l1.2-1.2c0.2-0.2,0.4-0.3,0.6-0.3s0.5,0.1,0.6,0.3l2.7,2.7l6-6
				c0.2-0.2,0.4-0.3,0.6-0.3s0.5,0.1,0.6,0.3l1.2,1.2C946.9,265.8,947,266,947,266.2z"/>
		</g>
	</g>
</g>
<g id="Tick4">
	<g>
		<circle class="st5" cx="1145" cy="138.7" r="15"/>
		<g>
			<path class="st8" d="M1151.6,135.8c0,0.2-0.1,0.4-0.3,0.6l-6.6,6.6l-1.2,1.2c-0.2,0.2-0.4,0.3-0.6,0.3s-0.4-0.1-0.6-0.3l-1.2-1.2
				l-3.3-3.3c-0.2-0.2-0.2-0.4-0.2-0.6c0-0.2,0.1-0.4,0.2-0.6l1.2-1.2c0.2-0.2,0.4-0.3,0.6-0.3s0.4,0.1,0.6,0.3l2.7,2.7l6-6
				c0.2-0.2,0.4-0.3,0.6-0.3s0.4,0.1,0.6,0.3l1.2,1.2C1151.5,135.3,1151.6,135.5,1151.6,135.8z"/>
		</g>
	</g>
</g>
<g id="Tick3">
	<g>
		<circle class="st5" cx="875.8" cy="138.7" r="15"/>
		<g>
			<path class="st8" d="M882.4,135.8c0,0.2-0.1,0.4-0.3,0.6l-6.6,6.6l-1.2,1.2c-0.2,0.2-0.4,0.3-0.6,0.3s-0.5-0.1-0.6-0.3l-1.2-1.2
				l-3.3-3.3c-0.2-0.2-0.2-0.4-0.2-0.6c0-0.2,0.1-0.4,0.2-0.6l1.2-1.2c0.2-0.2,0.4-0.3,0.6-0.3s0.5,0.1,0.6,0.3l2.7,2.7l6-6
				c0.2-0.2,0.4-0.3,0.6-0.3s0.5,0.1,0.6,0.3l1.2,1.2C882.4,135.3,882.4,135.5,882.4,135.8z"/>
		</g>
	</g>
</g>
<g id="Tick2">
	<g>
		<circle class="st5" cx="607.1" cy="138.7" r="15"/>
		<g>
			<path class="st8" d="M613.8,135.8c0,0.2-0.1,0.4-0.3,0.6l-6.6,6.6l-1.2,1.2c-0.2,0.2-0.4,0.3-0.6,0.3s-0.5-0.1-0.6-0.3l-1.2-1.2
				l-3.3-3.3c-0.2-0.2-0.3-0.4-0.3-0.6c0-0.2,0.1-0.4,0.3-0.6l1.2-1.2c0.2-0.2,0.4-0.3,0.6-0.3s0.5,0.1,0.6,0.3l2.7,2.7l6-6
				c0.2-0.2,0.4-0.3,0.6-0.3s0.5,0.1,0.6,0.3l1.2,1.2C613.7,135.3,613.8,135.5,613.8,135.8z"/>
		</g>
	</g>
</g>
<g id="Tick1">
	<g>
		<circle class="st5" cx="339" cy="138.7" r="15"/>
		<g>
			<path class="st8" d="M345.6,135.8c0,0.2-0.1,0.4-0.3,0.6l-6.6,6.6l-1.2,1.2c-0.2,0.2-0.4,0.3-0.6,0.3s-0.5-0.1-0.6-0.3L335,143
				l-3.3-3.3c-0.2-0.2-0.2-0.4-0.2-0.6c0-0.2,0.1-0.4,0.2-0.6l1.2-1.2c0.2-0.2,0.4-0.3,0.6-0.3s0.5,0.1,0.6,0.3l2.7,2.7l6-6
				c0.2-0.2,0.4-0.3,0.6-0.3s0.5,0.1,0.6,0.3l1.2,1.2C345.5,135.3,345.6,135.5,345.6,135.8z"/>
		</g>
	</g>
</g>
<g id="Lock17">
	<g>
		<circle class="st1" cx="338.6" cy="660.6" r="15"/>
		<g>
			<path class="st8" d="M344.5,660v5.9c0,0.3-0.1,0.5-0.3,0.7s-0.4,0.3-0.7,0.3h-9.8c-0.3,0-0.5-0.1-0.7-0.3
				c-0.2-0.2-0.3-0.4-0.3-0.7V660c0-0.3,0.1-0.5,0.3-0.7s0.4-0.3,0.7-0.3h0.3v-2c0-1.2,0.5-2.3,1.4-3.2s2-1.3,3.2-1.3
				s2.3,0.5,3.2,1.3s1.4,2,1.4,3.2v2h0.3c0.3,0,0.5,0.1,0.7,0.3C344.4,659.5,344.5,659.8,344.5,660z M336,659h5.2v-2
				c0-0.7-0.2-1.3-0.8-1.8c-0.5-0.5-1.1-0.8-1.9-0.8c-0.7,0-1.3,0.3-1.9,0.8s-0.8,1.1-0.8,1.8L336,659L336,659z"/>
		</g>
	</g>
</g>
<g id="Lock16">
	<g>
		<circle class="st1" cx="134.3" cy="529.2" r="15"/>
		<g>
			<path class="st8" d="M140.2,528.7v5.9c0,0.3-0.1,0.5-0.3,0.7c-0.2,0.2-0.4,0.3-0.7,0.3h-9.8c-0.3,0-0.5-0.1-0.7-0.3
				s-0.3-0.4-0.3-0.7v-5.9c0-0.3,0.1-0.5,0.3-0.7c0.2-0.2,0.4-0.3,0.7-0.3h0.3v-2c0-1.2,0.4-2.3,1.4-3.2c0.9-0.9,2-1.3,3.2-1.3
				s2.3,0.5,3.2,1.3c0.9,0.9,1.4,2,1.4,3.2v2h0.3c0.3,0,0.5,0.1,0.7,0.3C140.2,528.2,140.2,528.4,140.2,528.7z M131.8,527.7h5.2v-2
				c0-0.7-0.3-1.3-0.8-1.8c-0.5-0.5-1.1-0.8-1.9-0.8s-1.3,0.2-1.9,0.8c-0.5,0.5-0.8,1.1-0.8,1.8L131.8,527.7L131.8,527.7z"/>
		</g>
	</g>
</g>
<g id="Lock15">
	<g>
		<circle class="st1" cx="403.5" cy="529.2" r="15"/>
		<g>
			<path class="st8" d="M409.4,528.7v5.9c0,0.3-0.1,0.5-0.3,0.7s-0.4,0.3-0.7,0.3h-9.8c-0.3,0-0.5-0.1-0.7-0.3s-0.3-0.4-0.3-0.7
				v-5.9c0-0.3,0.1-0.5,0.3-0.7s0.4-0.3,0.7-0.3h0.3v-2c0-1.2,0.5-2.3,1.4-3.2c0.9-0.9,2-1.3,3.2-1.3c1.2,0,2.3,0.5,3.2,1.3
				c0.9,0.9,1.4,2,1.4,3.2v2h0.3c0.3,0,0.5,0.1,0.7,0.3C409.3,528.2,409.4,528.4,409.4,528.7z M400.9,527.7h5.2v-2
				c0-0.7-0.2-1.3-0.8-1.8c-0.5-0.5-1.1-0.8-1.9-0.8s-1.3,0.2-1.9,0.8c-0.5,0.5-0.8,1.1-0.8,1.8L400.9,527.7L400.9,527.7z"/>
		</g>
	</g>
</g>
<g id="Lock14">
	<g>
		<circle class="st1" cx="671.2" cy="529.2" r="15"/>
		<g>
			<path class="st8" d="M677.1,528.7v5.9c0,0.3-0.1,0.5-0.3,0.7s-0.4,0.3-0.7,0.3h-9.8c-0.3,0-0.5-0.1-0.7-0.3s-0.3-0.4-0.3-0.7
				v-5.9c0-0.3,0.1-0.5,0.3-0.7s0.4-0.3,0.7-0.3h0.3v-2c0-1.2,0.5-2.3,1.3-3.2c0.9-0.9,2-1.3,3.2-1.3s2.3,0.5,3.2,1.3
				c0.9,0.9,1.3,2,1.3,3.2v2h0.3c0.3,0,0.5,0.1,0.7,0.3S677.1,528.4,677.1,528.7z M668.6,527.7h5.2v-2c0-0.7-0.2-1.3-0.8-1.8
				c-0.5-0.5-1.1-0.8-1.8-0.8s-1.3,0.2-1.8,0.8c-0.5,0.5-0.8,1.1-0.8,1.8L668.6,527.7L668.6,527.7z"/>
		</g>
	</g>
</g>
<g id="Lock13">
	<g>
		<circle class="st1" cx="940.3" cy="529.2" r="15"/>
		<g>
			<path class="st8" d="M946.3,528.7v5.9c0,0.3-0.1,0.5-0.3,0.7c-0.2,0.2-0.4,0.3-0.7,0.3h-9.8c-0.3,0-0.5-0.1-0.7-0.3
				s-0.3-0.4-0.3-0.7v-5.9c0-0.3,0.1-0.5,0.3-0.7s0.4-0.3,0.7-0.3h0.3v-2c0-1.2,0.5-2.3,1.3-3.2c0.9-0.9,2-1.3,3.2-1.3
				c1.2,0,2.3,0.5,3.2,1.3c0.9,0.9,1.3,2,1.3,3.2v2h0.3c0.3,0,0.5,0.1,0.7,0.3C946.2,528.2,946.3,528.4,946.3,528.7z M937.8,527.7
				h5.2v-2c0-0.7-0.2-1.3-0.8-1.8c-0.5-0.5-1.1-0.8-1.8-0.8s-1.3,0.2-1.8,0.8c-0.5,0.5-0.8,1.1-0.8,1.8L937.8,527.7L937.8,527.7z"/>
		</g>
	</g>
</g>
<g id="Lock12">
	<g>
		<circle class="st1" cx="1145.6" cy="399.6" r="15"/>
		<g>
			<path class="st8" d="M1151.5,399.1v5.9c0,0.3-0.1,0.5-0.3,0.7c-0.2,0.2-0.4,0.3-0.7,0.3h-9.8c-0.3,0-0.5-0.1-0.7-0.3
				s-0.3-0.4-0.3-0.7v-5.9c0-0.3,0.1-0.5,0.3-0.7c0.2-0.2,0.4-0.3,0.7-0.3h0.3v-2c0-1.2,0.4-2.3,1.3-3.2c0.9-0.9,2-1.4,3.2-1.4
				s2.3,0.5,3.2,1.4s1.3,2,1.3,3.2v2h0.3c0.3,0,0.5,0.1,0.7,0.3C1151.4,398.6,1151.5,398.8,1151.5,399.1z M1143,398.1h5.2v-2
				c0-0.7-0.3-1.3-0.8-1.9s-1.1-0.8-1.8-0.8s-1.3,0.3-1.8,0.8c-0.5,0.5-0.8,1.1-0.8,1.9L1143,398.1L1143,398.1z"/>
		</g>
	</g>
</g>
<g id="Lock11">
	<g>
		<circle class="st1" cx="876.4" cy="399.6" r="15"/>
		<g>
			<path class="st8" d="M882.3,399.1v5.9c0,0.3-0.1,0.5-0.3,0.7s-0.4,0.3-0.7,0.3h-9.8c-0.3,0-0.5-0.1-0.7-0.3s-0.3-0.4-0.3-0.7
				v-5.9c0-0.3,0.1-0.5,0.3-0.7s0.4-0.3,0.7-0.3h0.3v-2c0-1.2,0.5-2.3,1.3-3.2c0.9-0.9,2-1.4,3.2-1.4c1.2,0,2.3,0.5,3.2,1.4
				c0.9,0.9,1.3,2,1.3,3.2v2h0.3c0.3,0,0.5,0.1,0.7,0.3C882.2,398.6,882.3,398.8,882.3,399.1z M873.8,398.1h5.2v-2
				c0-0.7-0.2-1.3-0.8-1.9s-1.1-0.8-1.8-0.8s-1.3,0.3-1.8,0.8c-0.5,0.5-0.8,1.1-0.8,1.9L873.8,398.1L873.8,398.1z"/>
		</g>
	</g>
</g>
<g id="Lock10">
	<g>
		<circle class="st1" cx="607.7" cy="399.6" r="15"/>
		<g>
			<path class="st8" d="M613.6,399.1v5.9c0,0.3-0.1,0.5-0.3,0.7c-0.2,0.2-0.4,0.3-0.7,0.3h-9.8c-0.3,0-0.5-0.1-0.7-0.3
				s-0.3-0.4-0.3-0.7v-5.9c0-0.3,0.1-0.5,0.3-0.7c0.2-0.2,0.4-0.3,0.7-0.3h0.3v-2c0-1.2,0.5-2.3,1.3-3.2c0.9-0.9,2-1.4,3.2-1.4
				s2.3,0.5,3.2,1.4c0.9,0.9,1.3,2,1.3,3.2v2h0.3c0.3,0,0.5,0.1,0.7,0.3C613.5,398.6,613.6,398.8,613.6,399.1z M605.1,398.1h5.2v-2
				c0-0.7-0.2-1.3-0.8-1.9c-0.5-0.5-1.1-0.8-1.8-0.8s-1.3,0.3-1.8,0.8c-0.5,0.5-0.8,1.1-0.8,1.9L605.1,398.1L605.1,398.1z"/>
		</g>
	</g>
</g>
<g id="Lock9">
	<g>
		<circle class="st1" cx="338.6" cy="399.6" r="15"/>
		<g>
			<path class="st8" d="M344.5,399.1v5.9c0,0.3-0.1,0.5-0.3,0.7s-0.4,0.3-0.7,0.3h-9.8c-0.3,0-0.5-0.1-0.7-0.3
				c-0.2-0.2-0.3-0.4-0.3-0.7v-5.9c0-0.3,0.1-0.5,0.3-0.7s0.4-0.3,0.7-0.3h0.3v-2c0-1.2,0.5-2.3,1.4-3.2c0.9-0.9,2-1.4,3.2-1.4
				s2.3,0.5,3.2,1.4c0.9,0.9,1.4,2,1.4,3.2v2h0.3c0.3,0,0.5,0.1,0.7,0.3C344.4,398.6,344.5,398.8,344.5,399.1z M336,398.1h5.2v-2
				c0-0.7-0.2-1.3-0.8-1.9c-0.5-0.5-1.1-0.8-1.9-0.8c-0.7,0-1.3,0.3-1.9,0.8s-0.8,1.1-0.8,1.9L336,398.1L336,398.1z"/>
		</g>
	</g>
</g>
<g id="Lock8">
	<g>
		<circle class="st1" cx="134.3" cy="269.2" r="15"/>
		<g>
			<path class="st8" d="M140.2,268.6v5.9c0,0.3-0.1,0.5-0.3,0.7c-0.2,0.2-0.4,0.3-0.7,0.3h-9.8c-0.3,0-0.5-0.1-0.7-0.3
				s-0.3-0.4-0.3-0.7v-5.9c0-0.3,0.1-0.5,0.3-0.7c0.2-0.2,0.4-0.3,0.7-0.3h0.3v-2c0-1.2,0.4-2.3,1.4-3.2c0.9-0.9,2-1.4,3.2-1.4
				s2.3,0.5,3.2,1.4s1.4,2,1.4,3.2v2h0.3c0.3,0,0.5,0.1,0.7,0.3C140.2,268.1,140.2,268.4,140.2,268.6z M131.8,267.7h5.2v-2
				c0-0.7-0.3-1.3-0.8-1.9c-0.5-0.5-1.1-0.8-1.9-0.8s-1.3,0.3-1.9,0.8c-0.5,0.5-0.8,1.1-0.8,1.9L131.8,267.7L131.8,267.7z"/>
		</g>
	</g>
</g>
<g id="Lock7">
	<g>
		<circle class="st1" cx="403.5" cy="269.2" r="15"/>
		<g>
			<path class="st8" d="M409.4,268.6v5.9c0,0.3-0.1,0.5-0.3,0.7s-0.4,0.3-0.7,0.3h-9.8c-0.3,0-0.5-0.1-0.7-0.3s-0.3-0.4-0.3-0.7
				v-5.9c0-0.3,0.1-0.5,0.3-0.7s0.4-0.3,0.7-0.3h0.3v-2c0-1.2,0.5-2.3,1.4-3.2c0.9-0.9,2-1.4,3.2-1.4c1.2,0,2.3,0.5,3.2,1.4
				c0.9,0.9,1.4,2,1.4,3.2v2h0.3c0.3,0,0.5,0.1,0.7,0.3C409.3,268.1,409.4,268.4,409.4,268.6z M400.9,267.7h5.2v-2
				c0-0.7-0.2-1.3-0.8-1.9s-1.1-0.8-1.9-0.8s-1.3,0.3-1.9,0.8c-0.5,0.5-0.8,1.1-0.8,1.9L400.9,267.7L400.9,267.7z"/>
		</g>
	</g>
</g>
<g id="Lock6">
	<g>
		<circle class="st1" cx="671.2" cy="269.2" r="15"/>
		<g>
			<path class="st8" d="M677.1,268.6v5.9c0,0.3-0.1,0.5-0.3,0.7s-0.4,0.3-0.7,0.3h-9.8c-0.3,0-0.5-0.1-0.7-0.3s-0.3-0.4-0.3-0.7
				v-5.9c0-0.3,0.1-0.5,0.3-0.7s0.4-0.3,0.7-0.3h0.3v-2c0-1.2,0.5-2.3,1.3-3.2c0.9-0.9,2-1.4,3.2-1.4s2.3,0.5,3.2,1.4
				c0.9,0.9,1.3,2,1.3,3.2v2h0.3c0.3,0,0.5,0.1,0.7,0.3C677,268.1,677.1,268.4,677.1,268.6z M668.6,267.7h5.2v-2
				c0-0.7-0.2-1.3-0.8-1.9s-1.1-0.8-1.8-0.8s-1.3,0.3-1.8,0.8s-0.8,1.1-0.8,1.9L668.6,267.7L668.6,267.7z"/>
		</g>
	</g>
</g>
<g id="Lock5">
	<g>
		<circle class="st1" cx="940.3" cy="269.2" r="15"/>
		<g>
			<path class="st8" d="M946.3,268.6v5.9c0,0.3-0.1,0.5-0.3,0.7c-0.2,0.2-0.4,0.3-0.7,0.3h-9.8c-0.3,0-0.5-0.1-0.7-0.3
				s-0.3-0.4-0.3-0.7v-5.9c0-0.3,0.1-0.5,0.3-0.7c0.2-0.2,0.4-0.3,0.7-0.3h0.3v-2c0-1.2,0.5-2.3,1.3-3.2c0.9-0.9,2-1.4,3.2-1.4
				c1.2,0,2.3,0.5,3.2,1.4c0.9,0.9,1.3,2,1.3,3.2v2h0.3c0.3,0,0.5,0.1,0.7,0.3C946.2,268.1,946.3,268.4,946.3,268.6z M937.8,267.7
				h5.2v-2c0-0.7-0.2-1.3-0.8-1.9c-0.5-0.5-1.1-0.8-1.8-0.8s-1.3,0.3-1.8,0.8c-0.5,0.5-0.8,1.1-0.8,1.9L937.8,267.7L937.8,267.7z"/>
		</g>
	</g>
</g>
<g id="Lock4">
	<g>
		<circle class="st1" cx="1145.6" cy="138.7" r="15"/>
		<g>
			<path class="st8" d="M1151.5,138.2v5.9c0,0.3-0.1,0.5-0.3,0.7c-0.2,0.2-0.4,0.3-0.7,0.3h-9.8c-0.3,0-0.5-0.1-0.7-0.3
				c-0.2-0.2-0.3-0.4-0.3-0.7v-5.9c0-0.3,0.1-0.5,0.3-0.7c0.2-0.2,0.4-0.3,0.7-0.3h0.3v-2c0-1.2,0.4-2.3,1.3-3.2s2-1.4,3.2-1.4
				s2.3,0.4,3.2,1.4c0.9,0.9,1.3,2,1.3,3.2v2h0.3c0.3,0,0.5,0.1,0.7,0.3C1151.4,137.7,1151.5,137.9,1151.5,138.2z M1143,137.2h5.2
				v-2c0-0.7-0.3-1.3-0.8-1.9c-0.5-0.5-1.1-0.8-1.8-0.8s-1.3,0.3-1.8,0.8c-0.5,0.5-0.8,1.1-0.8,1.9L1143,137.2L1143,137.2z"/>
		</g>
	</g>
</g>
<g id="Lock3">
	<g>
		<circle class="st1" cx="876.4" cy="138.7" r="15"/>
		<g>
			<path class="st8" d="M882.3,138.2v5.9c0,0.3-0.1,0.5-0.3,0.7s-0.4,0.3-0.7,0.3h-9.8c-0.3,0-0.5-0.1-0.7-0.3
				c-0.2-0.2-0.3-0.4-0.3-0.7v-5.9c0-0.3,0.1-0.5,0.3-0.7s0.4-0.3,0.7-0.3h0.3v-2c0-1.2,0.5-2.3,1.3-3.2c0.9-0.9,2-1.4,3.2-1.4
				c1.2,0,2.3,0.4,3.2,1.4c0.9,0.9,1.3,2,1.3,3.2v2h0.3c0.3,0,0.5,0.1,0.7,0.3C882.2,137.7,882.3,137.9,882.3,138.2z M873.8,137.2
				h5.2v-2c0-0.7-0.2-1.3-0.8-1.9s-1.1-0.8-1.8-0.8s-1.3,0.3-1.8,0.8c-0.5,0.5-0.8,1.1-0.8,1.9L873.8,137.2L873.8,137.2z"/>
		</g>
	</g>
</g>
<g id="Lock2">
	<g>
		<circle class="st1" cx="607.7" cy="138.7" r="15"/>
		<g>
			<path class="st8" d="M613.6,138.2v5.9c0,0.3-0.1,0.5-0.3,0.7c-0.2,0.2-0.4,0.3-0.7,0.3h-9.8c-0.3,0-0.5-0.1-0.7-0.3
				c-0.2-0.2-0.3-0.4-0.3-0.7v-5.9c0-0.3,0.1-0.5,0.3-0.7c0.2-0.2,0.4-0.3,0.7-0.3h0.3v-2c0-1.2,0.5-2.3,1.3-3.2
				c0.9-0.9,2-1.4,3.2-1.4s2.3,0.4,3.2,1.4c0.9,0.9,1.3,2,1.3,3.2v2h0.3c0.3,0,0.5,0.1,0.7,0.3C613.5,137.7,613.6,137.9,613.6,138.2
				z M605.1,137.2h5.2v-2c0-0.7-0.2-1.3-0.8-1.9c-0.5-0.5-1.1-0.8-1.8-0.8s-1.3,0.3-1.8,0.8c-0.5,0.5-0.8,1.1-0.8,1.9L605.1,137.2
				L605.1,137.2z"/>
		</g>
	</g>
</g>
<g id="Lock1">
	<g>
		<circle class="st1" cx="338.6" cy="138.7" r="15"/>
		<g>
			<path class="st8" d="M344.5,138.2v5.9c0,0.3-0.1,0.5-0.3,0.7s-0.4,0.3-0.7,0.3h-9.8c-0.3,0-0.5-0.1-0.7-0.3
				c-0.2-0.2-0.3-0.4-0.3-0.7v-5.9c0-0.3,0.1-0.5,0.3-0.7s0.4-0.3,0.7-0.3h0.3v-2c0-1.2,0.5-2.3,1.4-3.2s2-1.4,3.2-1.4
				s2.3,0.4,3.2,1.4c0.9,0.9,1.4,2,1.4,3.2v2h0.3c0.3,0,0.5,0.1,0.7,0.3C344.4,137.7,344.5,137.9,344.5,138.2z M336,137.2h5.2v-2
				c0-0.7-0.2-1.3-0.8-1.9c-0.5-0.5-1.1-0.8-1.9-0.8c-0.7,0-1.3,0.3-1.9,0.8s-0.8,1.1-0.8,1.9L336,137.2L336,137.2z"/>
		</g>
	</g>
</g>
<g id="Number18">
	<circle class="st9" cx="602.1" cy="660.6" r="20"/>
	<g>
		<path class="st8" d="M611.1,661c0,1.3-0.4,2.5-1.3,3.4c-0.9,0.9-1.9,1.4-3.2,1.4c-1.8,0-3.3-1-4.5-2.9c-1.3,1.9-2.7,2.9-4.3,2.9
			c-1.4,0-2.5-0.4-3.3-1.3c-0.8-0.9-1.3-2-1.3-3.5c0-1.4,0.4-2.5,1.3-3.4c0.9-0.9,2-1.3,3.3-1.3c1.8,0,3.2,1,4.4,2.9
			c1.2-1.9,2.7-2.8,4.5-2.8c1.4,0,2.5,0.4,3.3,1.3C610.7,658.4,611.1,659.5,611.1,661z M597.9,663.3c0.5,0,1.1-0.2,1.5-0.6
			s0.9-1,1.4-1.8c-0.5-0.8-0.9-1.4-1.4-1.8c-0.5-0.4-1-0.6-1.6-0.6c-0.7,0-1.2,0.2-1.6,0.7s-0.6,1-0.6,1.7c0,0.7,0.2,1.3,0.6,1.7
			S597.2,663.3,597.9,663.3z M606.4,658.6c-0.5,0-1,0.2-1.5,0.6c-0.5,0.4-1,1-1.5,1.8c0.5,0.8,0.9,1.4,1.4,1.8
			c0.5,0.4,1,0.6,1.6,0.6c0.7,0,1.2-0.2,1.6-0.7s0.6-1,0.6-1.7s-0.2-1.3-0.6-1.7C607.6,658.8,607.1,658.6,606.4,658.6z"/>
	</g>
</g>
<g id="Number17">
	<circle class="st9" cx="334" cy="660.6" r="20"/>
	<text transform="matrix(1.0128 0 0 1 322.3955 667.4592)" class="st8 st2 st10">17</text>
</g>
<g id="Number16">
	<circle class="st9" cx="139.3" cy="530.1" r="20"/>
	<text transform="matrix(1.0128 0 0 1 127.7529 536.9934)" class="st8 st2 st10">16</text>
</g>
<g id="Number15">
	<circle class="st9" cx="408.5" cy="530.1" r="20"/>
	<text transform="matrix(1.0128 0 0 1 396.9385 536.9934)" class="st8 st2 st10">15</text>
</g>
<g id="Number14">
	<circle class="st9" cx="676.7" cy="530.1" r="20"/>
	<text transform="matrix(1.0128 0 0 1 665.124 536.9934)" class="st8 st2 st10">14</text>
</g>
<g id="Number13">
	<circle class="st9" cx="945.3" cy="530.1" r="20"/>
	<text transform="matrix(1.0128 0 0 1 933.7861 536.9934)" class="st8 st2 st10">13</text>
</g>
<g id="Number12">
	<circle class="st9" cx="1141.5" cy="399.6" r="20"/>
	<text transform="matrix(1.0128 0 0 1 1129.9512 406.5305)" class="st8 st2 st10">12</text>
</g>
<g id="Number11">
	<circle class="st9" cx="870.3" cy="399.6" r="20"/>
	<text transform="matrix(1.0128 0 0 1 858.7656 406.5305)" class="st8 st2 st10">11</text>
</g>
<g id="Number10">
	<circle class="st9" cx="602.1" cy="399.6" r="20"/>
	<text transform="matrix(1.0128 0 0 1 590.5811 406.5305)" class="st8 st2 st10">10</text>
</g>
<g id="Number9">
	<circle class="st9" cx="334" cy="399.6" r="20"/>
	<text transform="matrix(1.0128 0 0 1 322.3955 406.5305)" class="st8 st2 st10">09</text>
</g>
<g id="Number8">
	<circle class="st9" cx="139.3" cy="269.2" r="20"/>
	<text transform="matrix(1.0128 0 0 1 127.7529 276.0652)" class="st8 st2 st10">08</text>
</g>
<g id="Number7">
	<circle class="st9" cx="408.5" cy="269.2" r="20"/>
	<text transform="matrix(1.0128 0 0 1 396.9385 276.0652)" class="st8 st2 st10">07</text>
</g>
<g id="Number6">
	<circle class="st9" cx="676.7" cy="269.2" r="20"/>
	<text transform="matrix(1.0128 0 0 1 665.124 276.0652)" class="st8 st2 st10">06</text>
</g>
<g id="Number5">
	<circle class="st9" cx="945.3" cy="269.2" r="20"/>
	<text transform="matrix(1.0128 0 0 1 933.7861 276.0652)" class="st8 st2 st10">05</text>
</g>
<g id="Number4">
	<circle class="st9" cx="1141.5" cy="138.7" r="20"/>
	<text transform="matrix(1.0128 0 0 1 1129.9512 145.6033)" class="st8 st2 st10">04</text>
</g>
<g id="Number3">
	<circle class="st9" cx="870.3" cy="138.7" r="20"/>
	<text transform="matrix(1.0128 0 0 1 858.7656 145.6033)" class="st8 st2 st10">03</text>
</g>
<g id="Number2">
	<circle class="st9" cx="602.1" cy="138.7" r="20"/>
	<text transform="matrix(1.0128 0 0 1 590.5811 145.6033)" class="st8 st2 st10">02</text>
</g>
<g id="Number1">
	<circle class="st9" cx="334" cy="138.7" r="20"/>
	<text transform="matrix(1.0128 0 0 1 322.3955 145.6033)" class="st8 st2 st10">01</text>
</g>
</svg>
