<?xml version="1.0" encoding="utf-8"?>
<!-- Generator: Adobe Illustrator 23.0.1, SVG Export Plug-In . SVG Version: 6.00 Build 0)  -->
<svg version="1.1" xmlns="http://www.w3.org/2000/svg" xmlns:xlink="http://www.w3.org/1999/xlink" x="0px" y="0px"
	 viewBox="0 0 20 20" style="enable-background:new 0 0 20 20;" xml:space="preserve">
<style type="text/css">
	.st0{fill:none;stroke:#D0D2D3;stroke-width:0.5;stroke-miterlimit:10;}
	.st1{fill:none;stroke:#BBBDBF;stroke-miterlimit:10;}
	.st2{fill:#F3F4F5;}
	.st3{fill:#FFFFFF;stroke:#6D6E70;stroke-miterlimit:10;}
	.st4{fill:#70C48F;}
	.st5{fill:#29B473;}
	.st6{fill:#BBBDBF;}
	.st7{fill:#6D6E70;}
	.st8{fill:#FFFFFF;}
	.st9{fill:#B29AC6;}
	.st10{fill:#FFFFFF;stroke:#D0D2D3;stroke-miterlimit:10;}
	.st11{fill:#231F20;}
	.st12{fill:#404041;}
	.st13{fill:#58595B;}
	.st14{fill:#808184;}
	.st15{fill:#929497;}
	.st16{fill:#A6A8AB;}
	.st17{fill:#D0D2D3;}
	.st18{fill:#E6E7E8;}
	.st19{opacity:0.5;fill:#F7CE3E;}
	.st20{fill:none;stroke:#929497;stroke-miterlimit:10;}
	.st21{fill:none;stroke:#6D6E70;stroke-miterlimit:10;}
	.st22{fill:#F1F1F2;}
	.st23{fill:#70C48F;stroke:#FFFFFF;stroke-miterlimit:10;}
	.st24{fill:none;stroke:#F9AD84;stroke-width:3;stroke-miterlimit:10;}
	.st25{fill:none;stroke:#67BABF;stroke-width:3;stroke-miterlimit:10;}
	.st26{fill:none;stroke:#929497;stroke-width:3;stroke-miterlimit:10;}
	.st27{fill:none;stroke:#929497;stroke-width:2;stroke-miterlimit:10;}
	.st28{fill:#F16A5E;}
	.st29{fill:none;stroke:#F9AD84;stroke-width:3;stroke-miterlimit:10;stroke-dasharray:12,12;}
	.st30{fill:none;stroke:#67BABF;stroke-width:3;stroke-miterlimit:10;stroke-dasharray:11.9155,11.9155;}
	.st31{fill:none;stroke:#F9AD84;stroke-width:4;stroke-linecap:round;stroke-miterlimit:10;}
	.st32{fill:#F9AD84;}
	.st33{fill:none;stroke:#67BABF;stroke-width:4;stroke-linecap:round;stroke-miterlimit:10;}
	.st34{fill:#67BABF;}
	.st35{fill:none;stroke:#F9AD84;stroke-width:4;stroke-miterlimit:10;}
	.st36{fill:#FFFFFF;stroke:#F9AD84;stroke-width:3;stroke-miterlimit:10;}
	.st37{fill:#FFFFFF;stroke:#67BABF;stroke-width:3;stroke-miterlimit:10;}
	.st38{fill:none;stroke:#F9AD84;stroke-width:3;stroke-miterlimit:10;stroke-dasharray:11.995,11.995;}
	.st39{fill:none;stroke:#67BABF;stroke-width:3;stroke-miterlimit:10;stroke-dasharray:12.1219,12.1219;}
	.st40{fill:none;stroke:#D0D2D3;stroke-miterlimit:10;}
	.st41{fill:none;stroke:#F9AD84;stroke-width:3;stroke-miterlimit:10;stroke-dasharray:11.9987,11.9987;}
	.st42{fill:#F7CE3E;}
	.st43{fill:none;stroke:#000000;stroke-miterlimit:10;}
	.st44{opacity:0.5;fill:#D0D2D3;}
	.st45{opacity:0.5;fill:#929497;}
	.st46{fill:#FFFFFF;stroke:#929497;stroke-miterlimit:10;}
	.st47{fill:none;stroke:#000000;stroke-width:2;stroke-miterlimit:10;}
	.st48{opacity:0.5;fill:#404041;}
	.st49{fill:#7E7BB0;}
	.st50{fill:#7E7BB0;stroke:#FFFFFF;stroke-miterlimit:10;}
	.st51{fill:#FFFFFF;stroke:#231F20;stroke-miterlimit:10;}
	.st52{fill:#B29AC6;stroke:#FFFFFF;stroke-miterlimit:10;}
	.st53{opacity:0.3;fill:#231F20;}
</style>
<g id="Grid__x26__Panel_Background">
</g>
<g id="Header__x26__Footer">
	<path class="st8" d="M18.99,20h-6.81c-0.54,0-1.01-0.46-1.01-1.01v-6.81c0-0.54,0.46-1.01,1.01-1.01h6.81
		c0.54,0,1.01,0.46,1.01,1.01v6.81C20,19.54,19.54,20,18.99,20z"/>
	<path class="st8" d="M18.99,8.82h-6.81c-0.54,0-1.01-0.46-1.01-1.01V1.01c0-0.54,0.46-1.01,1.01-1.01h6.81C19.54,0,20,0.46,20,1.01
		v6.81C20,8.36,19.54,8.82,18.99,8.82z"/>
	<path class="st8" d="M7.81,8.82H1.01C0.46,8.82,0,8.36,0,7.81V1.01C0,0.46,0.46,0,1.01,0h6.81c0.54,0,1.01,0.46,1.01,1.01v6.81
		C8.82,8.36,8.36,8.82,7.81,8.82z"/>
	<path class="st8" d="M7.81,20H1.01C0.46,20,0,19.54,0,18.99v-6.81c0-0.54,0.46-1.01,1.01-1.01h6.81c0.54,0,1.01,0.46,1.01,1.01
		v6.81C8.82,19.54,8.36,20,7.81,20z"/>
</g>
<g id="Instruction_Box">
</g>
<g id="Instruction_Box_Special">
</g>
<g id="_x3C__and__x3E_">
</g>
<g id="Axes">
</g>
<g id="Pop-up_Assess">
</g>
<g id="Pop-up_Info">
</g>
<g id="Blinking_Guides__x2F__Hints">
</g>
<g id="Drawn_Lines__x2F__Points">
</g>
<g id="Full_Screen_Pop-up">
</g>
<g id="Random">
</g>
</svg>
