<?xml version="1.0" encoding="utf-8"?>
<!-- Generator: Adobe Illustrator 23.0.1, SVG Export Plug-In . SVG Version: 6.00 Build 0)  -->
<svg version="1.1" xmlns="http://www.w3.org/2000/svg" xmlns:xlink="http://www.w3.org/1999/xlink" x="0px" y="0px"
	 viewBox="0 0 110.36 110.36" style="enable-background:new 0 0 110.36 110.36;" xml:space="preserve">
<style type="text/css">
	.st0{fill:none;stroke:#D1D3D4;stroke-width:0.5;stroke-miterlimit:10;}
	.st1{fill:none;stroke:#BCBEC0;stroke-miterlimit:10;}
	.st2{fill:#F4F4F5;}
	.st3{fill:#FFFFFF;stroke:#6D6E71;stroke-miterlimit:10;}
	.st4{fill:#F26A5E;}
	.st5{fill:#70C48F;}
	.st6{fill:none;stroke:#939598;stroke-width:2;stroke-miterlimit:10;}
	.st7{fill:#BCBEC0;}
	.st8{fill:#6D6E71;}
	.st9{fill:none;stroke:#F9AD84;stroke-width:4;stroke-miterlimit:10;}
	.st10{fill:#F9AD84;}
	.st11{fill:none;stroke:#67BABF;stroke-width:4;stroke-linecap:round;stroke-miterlimit:10;}
	.st12{fill:#67BABF;}
	.st13{fill:#70C48F;stroke:#F4F4F5;stroke-width:3;stroke-miterlimit:10;}
	.st14{opacity:0.5;fill:#F7CE3E;stroke:#F4F4F5;stroke-width:3;stroke-miterlimit:10;}
	.st15{fill:#D1D3D4;stroke:#F4F4F5;stroke-width:3;stroke-miterlimit:10;}
	.st16{opacity:0.5;fill:#F7CE3E;}
	.st17{fill:#FFFFFF;stroke:#414042;stroke-width:3;stroke-miterlimit:10;}
	.st18{fill:#414042;}
	.st19{fill:#F26A5E;stroke:#F4F4F5;stroke-width:3;stroke-miterlimit:10;}
	.st20{fill:#FFFFFF;}
	.st21{fill:#F26A5E;stroke:#FFFFFF;stroke-miterlimit:10;}
	.st22{fill:none;stroke:#F9AD84;stroke-width:3;stroke-miterlimit:10;}
	.st23{fill:none;stroke:#F9AD84;stroke-width:3;stroke-miterlimit:10;stroke-dasharray:12,12;}
	.st24{fill:none;stroke:#67BABF;stroke-width:3;stroke-miterlimit:10;}
	.st25{fill:none;stroke:#67BABF;stroke-width:3;stroke-miterlimit:10;stroke-dasharray:11.9155,11.9155;}
	.st26{opacity:0.5;fill:#D0D2D3;}
	.st27{opacity:0.5;fill:#929497;}
	.st28{fill:#BBBDBF;}
	.st29{fill:none;stroke:#F9AD84;stroke-width:2;stroke-miterlimit:10;}
	.st30{fill:none;stroke:#F9AD84;stroke-width:2;stroke-miterlimit:10;stroke-dasharray:5.9692,5.9692;}
	.st31{fill:none;stroke:#67BABF;stroke-width:2;stroke-miterlimit:10;}
	.st32{fill:none;stroke:#67BABF;stroke-width:2;stroke-miterlimit:10;stroke-dasharray:5.9813,5.9813;}
	.st33{fill:#231F20;}
	.st34{fill:#F3F4F5;}
	.st35{fill:none;stroke:#929497;stroke-miterlimit:10;}
	.st36{fill:#FFFFFF;stroke:#929497;stroke-miterlimit:10;}
	.st37{fill:#D0D2D3;stroke:#F4F4F5;stroke-width:3;stroke-miterlimit:10;}
	.st38{fill:none;stroke:#F9AD84;stroke-width:3;stroke-linecap:round;stroke-miterlimit:10;}
	.st39{fill:none;stroke:#67BABF;stroke-width:3;stroke-linecap:round;stroke-miterlimit:10;}
	.st40{fill:#929497;}
	.st41{fill:#FFFFFF;stroke:#231F20;stroke-width:2;stroke-miterlimit:10;}
</style>
<g id="Grid__x26__Panel_Background">
</g>
<g id="Header__x26__Footer">
</g>
<g id="Instruction_Box">
</g>
<g id="Instruction_Box_Special">
</g>
<g id="_x3C__and__x3E_">
</g>
<g id="Axes">
</g>
<g id="Pop-up_Assess">
</g>
<g id="Pop-up_Info">
</g>
<g id="Blinking_Guides__x2F__Hints">
</g>
<g id="Drawn_Lines__x2F__Points">
</g>
<g id="Full_Screen_Pop-up">
</g>
<g id="Random">
	<g>
		<circle class="st20" cx="55.18" cy="55.18" r="55.18"/>
		<g>
			<path class="st5" d="M76.92,55.2v21.63c0,1-0.35,1.86-1.05,2.56c-0.71,0.7-1.56,1.05-2.56,1.05H37.26c-1,0-1.85-0.35-2.55-1.05
				c-0.7-0.7-1.05-1.56-1.05-2.56V55.2c0-1,0.35-1.85,1.05-2.55c0.7-0.7,1.55-1.05,2.55-1.05H64.9V40.39c0-2.66-0.94-4.92-2.81-6.8
				c-1.88-1.88-4.15-2.82-6.8-2.82c-2.66,0-4.92,0.94-6.8,2.82c-1.88,1.88-2.82,4.14-2.82,6.8v2.92c0,1.99-1.61,3.6-3.6,3.6
				c-1.99,0-3.6-1.61-3.6-3.6v-2.92c0-4.61,1.65-8.56,4.95-11.87c3.31-3.3,7.26-4.96,11.87-4.96c4.6,0,8.56,1.66,11.86,4.96
				c3.31,3.31,4.96,7.26,4.96,11.87V51.6h1.2c1,0,1.85,0.35,2.56,1.05C76.57,53.35,76.92,54.2,76.92,55.2z"/>
		</g>
		<g>
			<g>
				<path class="st20" d="M64.04,62.56c0,0.3-0.1,0.55-0.31,0.76l-8.09,8.09l-1.52,1.52c-0.21,0.21-0.46,0.31-0.76,0.31
					s-0.55-0.1-0.76-0.31l-1.52-1.52l-4.04-4.04c-0.21-0.21-0.31-0.46-0.31-0.76s0.1-0.55,0.31-0.76l1.52-1.52
					c0.21-0.21,0.46-0.31,0.76-0.31s0.55,0.1,0.76,0.31l3.28,3.3l7.33-7.34c0.21-0.21,0.46-0.31,0.76-0.31s0.55,0.1,0.76,0.31
					l1.52,1.52C63.94,62.01,64.04,62.26,64.04,62.56z"/>
			</g>
		</g>
	</g>
</g>
<g id="_x30_0_Grid">
</g>
<g id="_x30_0_Panel">
</g>
<g id="_x30_0_Fixed_Header_and_Footer">
</g>
<g id="_x30_0_Changing_Footer">
</g>
<g id="Layer_15">
</g>
<g id="Layer_16">
</g>
<g id="Layer_19">
</g>
</svg>
